<?xml version="1.0" standalone="no"?>
<!DOCTYPE svg PUBLIC "-//W3C//DTD SVG 1.1//EN" "http://www.w3.org/Graphics/SVG/1.1/DTD/svg11.dtd" >
<svg xmlns="http://www.w3.org/2000/svg" xmlns:xlink="http://www.w3.org/1999/xlink" version="1.1">
<metadata></metadata>
<defs>
<font id="qanelasmedium_italic" horiz-adv-x="497" >
<font-face units-per-em="2048" ascent="1638" descent="-410" />
<missing-glyph horiz-adv-x="512" />
<glyph horiz-adv-x="0" />
<glyph horiz-adv-x="682" />
<glyph unicode=" "  horiz-adv-x="512" />
<glyph unicode="&#x09;" horiz-adv-x="512" />
<glyph unicode="&#xa0;" horiz-adv-x="512" />
<glyph unicode="!" d="M49 0l39 221h219l-39 -221h-219zM164 420l67 604l72 410h215l-72 -410l-143 -604h-139z" />
<glyph unicode="&#x22;" horiz-adv-x="681" d="M209 1004l51 430h178l-100 -430h-129zM516 1004l51 430h178l-100 -430h-129z" />
<glyph unicode="#" horiz-adv-x="1239" d="M47 457l51 147h238l78 225h-242l51 150h242l121 352h157l-120 -352h249l121 352h156l-121 -352h236l-52 -150h-235l-78 -225h240l-52 -147h-239l-121 -355h-156l121 355h-250l-120 -355h-158l121 355h-238zM494 604h249l78 225h-250z" />
<glyph unicode="$" horiz-adv-x="1124" d="M57 424h189q-20 -108 31.5 -174t158.5 -84l86 487q-30 12 -54.5 23.5t-53 26.5t-51 30t-46 33.5t-41.5 39t-34 44t-26 50t-16 56.5t-6 65t7 73q31 163 161 257t304 107l30 180h129l-32 -184q77 -11 141.5 -43.5t111 -84t65.5 -127.5t3 -167h-186q17 98 -28.5 159 t-139.5 79l-84 -477q87 -36 143.5 -67.5t116.5 -84t82.5 -125.5t5.5 -166q-20 -115 -93.5 -199.5t-176 -127t-224.5 -48.5l-30 -180h-129l32 185q-85 12 -155 46t-119.5 88.5t-69 134.5t-2.5 175zM391 1079q-14 -82 30 -136t136 -99l76 428q-96 -13 -162.5 -63t-79.5 -130z M563 162q108 9 182 63t91 140q14 84 -37.5 139t-155.5 102z" />
<glyph unicode="%" horiz-adv-x="1568" d="M96 0l1254 1434h194l-1253 -1434h-195zM225 1147q22 132 127.5 222.5t251.5 90.5q139 0 216 -99.5t52 -232.5q-26 -130 -128 -216.5t-246 -86.5q-137 0 -216 96t-57 226zM385 1143q-12 -72 25.5 -120t109.5 -48q71 0 126 49t67 119t-25 118t-108 48q-72 0 -127.5 -48 t-67.5 -118zM770 301q24 131 128.5 220t250.5 89q137 0 214.5 -98t53.5 -229t-128.5 -219.5t-248.5 -88.5q-137 0 -214.5 97t-55.5 229zM930 293q-11 -71 25.5 -118.5t107.5 -47.5q73 0 128 48t66 118q12 70 -25.5 118t-109.5 48q-71 0 -125.5 -48t-66.5 -118z" />
<glyph unicode="&#x26;" horiz-adv-x="1384" d="M80 414q22 117 97 213t196 164q-81 134 -56 286q21 119 95.5 207t181 132t229.5 44q84 0 159.5 -28.5t131.5 -80.5t81 -135t7 -184h-188q21 120 -41.5 182t-177.5 62q-108 0 -189.5 -59t-99.5 -160q-21 -120 84 -252l375 -453q92 124 127 322h190q-49 -281 -205 -459 l176 -215h-229l-82 96q-180 -123 -434 -123q-138 0 -243 55t-156 156.5t-29 229.5zM270 408q-19 -114 55 -184t216 -70q168 0 290 75l-360 433q-87 -45 -137.5 -112.5t-63.5 -141.5z" />
<glyph unicode="'" horiz-adv-x="374" d="M209 1004l51 430h178l-100 -430h-129z" />
<glyph unicode="(" horiz-adv-x="573" d="M158 731q80 462 385 907h178q-305 -449 -387 -921q-82 -474 61 -922h-178q-144 446 -59 936z" />
<glyph unicode=")" horiz-adv-x="571" d="M-76 -205q305 448 387 922t-61 921h178q145 -450 61 -936q-80 -458 -387 -907h-178z" />
<glyph unicode="*" horiz-adv-x="808" d="M225 1118l23 131l184 -10l-82 152l123 69l62 -168l122 168l109 -69l-133 -152l186 10l-22 -131l-185 8l82 -149l-121 -70l-63 168l-121 -168l-110 70l133 149z" />
<glyph unicode="+" horiz-adv-x="1116" d="M139 633l29 170h356l64 354h170l-64 -354h355l-29 -170h-354l-64 -357h-170l64 357h-357z" />
<glyph unicode="," d="M0 -272l16 94q56 8 90 47.5t50 130.5h-107l39 221h219l-39 -221q-44 -248 -268 -272z" />
<glyph unicode="-" horiz-adv-x="1054" d="M160 543l28 172h748l-29 -172h-747z" />
<glyph unicode="." d="M49 0l39 221h219l-39 -221h-219z" />
<glyph unicode="/" horiz-adv-x="1081" d="M-51 -205l1138 1843h115l-1136 -1843h-117z" />
<glyph unicode="0" horiz-adv-x="1294" d="M116.5 429.5q-16.5 139.5 14.5 305.5q60 339 235 532t443 193q128 0 223.5 -56.5t148.5 -157.5t69 -240.5t-15 -305.5q-60 -340 -234.5 -533.5t-443.5 -193.5q-127 0 -222.5 57t-148.5 158.5t-69.5 241zM322 717q-47 -267 21 -412t243 -145q173 0 293.5 145t167.5 412 t-22.5 413t-242.5 146t-293.5 -146t-166.5 -413z" />
<glyph unicode="1" horiz-adv-x="727" d="M121 1034l37 209l383 191h190l-252 -1434h-190l215 1225z" />
<glyph unicode="2" horiz-adv-x="1081" d="M-14 0l28 160l596 510q113 96 182 180.5t85 169.5q21 121 -40.5 188.5t-166.5 67.5q-119 0 -205.5 -64.5t-108.5 -193.5h-188q19 110 70.5 196.5t123.5 139t155.5 79.5t172.5 27q83 0 158 -31t131 -87t81 -144t7 -192q-23 -123 -106.5 -231.5t-221.5 -223.5l-436 -367 h643l-33 -184h-927z" />
<glyph unicode="3" horiz-adv-x="1097" d="M19.5 265.5q-14.5 71.5 0.5 158.5h191q-23 -124 49 -194t205 -70q134 0 230.5 70t117.5 194q23 126 -48.5 196t-205.5 70h-119l23 125l391 440h-627l31 179h860l-28 -168l-379 -424q151 -36 236 -149.5t57 -282.5q-19 -106 -73 -190.5t-130.5 -137.5t-167.5 -81t-189 -28 q-78 0 -148 19t-127.5 56t-96 91.5t-53 126z" />
<glyph unicode="4" horiz-adv-x="1177" d="M8 272l29 179l684 983h215l-684 -983h522l72 405h190l-71 -405h174l-31 -179h-174l-49 -272h-191l49 272h-735z" />
<glyph unicode="5" horiz-adv-x="1132" d="M59 424h191q-23 -124 48.5 -194t205.5 -70t229.5 69.5t118.5 194.5q23 126 -48.5 196t-205.5 70h-422l182 744h805l-30 -179h-627l-94 -381h223q89 0 170 -32t140.5 -89.5t87 -147t9.5 -195.5q-26 -141 -110 -241.5t-199 -148t-250 -47.5q-97 0 -181.5 30t-145.5 85.5 t-88 142.5t-9 193z" />
<glyph unicode="6" horiz-adv-x="1101" d="M49 471q34 178 150 297l563 666h229l-424 -498q9 0 27 1t27 1q211 0 330 -142t81 -354q-38 -214 -193 -341.5t-378 -127.5q-214 0 -332 142.5t-80 355.5zM240 457q-25 -136 42.5 -218.5t204.5 -82.5t234.5 82.5t122.5 218.5q23 135 -45.5 217t-204.5 82 q-138 0 -234.5 -81.5t-119.5 -217.5z" />
<glyph unicode="7" horiz-adv-x="1003" d="M121 0l729 1253h-682l31 181h895l-29 -170l-735 -1264h-209z" />
<glyph unicode="8" horiz-adv-x="1138" d="M57 408q20 115 95.5 203.5t191.5 136.5q-73 56 -108 137t-17 182q18 99 68.5 176.5t121.5 123.5t153.5 69.5t170.5 23.5q82 0 156 -27.5t129.5 -78t80.5 -132t7 -180.5q-18 -104 -79 -181.5t-153 -125.5q94 -57 139 -150.5t25 -205.5q-36 -196 -188 -301t-373 -105 q-133 0 -236.5 52t-155.5 152.5t-28 230.5zM248 406q-21 -120 52.5 -185t205.5 -65q135 0 229 64.5t117 185.5q19 118 -55.5 182.5t-202.5 64.5q-133 0 -229 -64t-117 -183zM408 1051q-18 -108 47 -169t168 -61q110 0 192 60.5t100 169.5q20 113 -42 170t-168 57 q-69 0 -129 -22.5t-107 -75.5t-61 -129z" />
<glyph unicode="9" horiz-adv-x="1105" d="M141 995q37 213 193.5 339t380.5 126q141 0 244 -65t148 -179t21 -255q-34 -176 -147 -295l-563 -666h-230l420 500q-18 -2 -53 -2q-139 0 -242.5 64.5t-149.5 178.5t-22 254zM332 979q-25 -136 44 -218.5t206 -82.5t235 82.5t121 218.5q25 136 -44 217.5t-206 81.5 t-235 -82t-121 -217z" />
<glyph unicode=":" d="M49 0l39 221h219l-39 -221h-219zM190 805l39 219h220l-39 -219h-220z" />
<glyph unicode=";" d="M0 -272l16 94q56 8 90 47.5t50 130.5h-107l39 221h219l-39 -221q-44 -248 -268 -272zM190 805l39 219h220l-39 -219h-220z" />
<glyph unicode="&#x3c;" horiz-adv-x="1071" d="M135 631l15 86l14 88l911 369l-37 -203l-686 -264l594 -263l-33 -182z" />
<glyph unicode="=" horiz-adv-x="1095" d="M96 424l33 170h868l-30 -170h-871zM172 840l29 170h870l-31 -170h-868z" />
<glyph unicode="&#x3e;" horiz-adv-x="1071" d="M70 262l36 203l687 262l-594 264l30 183l779 -369l-15 -88l-16 -86z" />
<glyph unicode="?" horiz-adv-x="1107" d="M168 1032q37 206 189.5 317t355.5 111q66 0 127 -17t112 -51t86 -81t48.5 -112t0.5 -140q-11 -64 -42 -120.5t-71.5 -99t-87.5 -82t-94 -76.5t-87 -75t-69 -85.5t-38 -100.5h-188q16 94 68 172.5t116.5 132.5t128.5 104t113 109.5t61 126.5q18 103 -41.5 157t-173.5 54 q-125 0 -214 -62.5t-110 -181.5h-190zM319 0l39 221h220l-39 -221h-220z" />
<glyph unicode="@" horiz-adv-x="1617" d="M80 532q27 151 107.5 285t195.5 229.5t263.5 151t305.5 55.5q92 0 175 -21.5t146 -60.5t116 -92t86 -116t55 -133t23 -143t-9 -146q-19 -112 -58.5 -196.5t-91.5 -133t-109.5 -72.5t-119.5 -24q-85 0 -142 43t-69 125q-101 -101 -237 -101q-135 0 -212 100t-52 240 t129 230t243 90q124 0 195 -101l16 84h158l-80 -452q-31 -180 96 -180q90 0 163.5 88.5t105.5 271.5q31 178 -28 325t-192.5 230.5t-314.5 83.5q-141 0 -275.5 -51t-240.5 -139.5t-181 -214.5t-100 -269q-26 -145 5.5 -272.5t110 -218t202.5 -143t276 -52.5q207 0 359 57 l-13 -65q-151 -53 -356 -53q-219 0 -381.5 100t-234.5 274.5t-35 386.5zM610 512q-13 -82 31.5 -132t122.5 -50q77 0 139.5 50.5t77.5 131.5q13 81 -31 131.5t-121 50.5q-79 0 -141.5 -50.5t-77.5 -131.5z" />
<glyph unicode="A" horiz-adv-x="1306" d="M-76 0l783 1434h215l278 -1434h-201l-55 322h-639l-174 -322h-207zM401 500h510l-125 710z" />
<glyph unicode="B" horiz-adv-x="1404" d="M63 0l252 1434h191h358q94 0 169.5 -31t120 -82.5t62.5 -117.5q10 -38 10 -78q0 -29 -5 -58q-20 -99 -95 -184q118 -61 172 -177q37 -80 37 -173q0 -42 -8 -87q-23 -124 -91 -223.5t-183 -161t-258 -61.5h-695h-37zM285 178h516q131 0 224.5 84t115.5 209q6 32 6 61 q0 86 -49 148q-65 84 -193 84h-518zM418 938h477q23 0 59 -4q64 58 76 135q3 19 3 36q1 55 -33 97q-44 54 -136 53h-391z" />
<glyph unicode="C" horiz-adv-x="1556" d="M117 737q27 154 104 287.5t189 229.5t258.5 151t306.5 55q238 0 412 -140.5t196 -356.5h-199q-28 142 -142.5 227.5t-283.5 85.5q-125 0 -238 -43t-197.5 -118t-142 -178t-77.5 -220q-11 -59 -11 -113q0 -90 30 -170q46 -126 161.5 -200t280.5 -74q164 0 310.5 85.5 t221.5 225.5h203q-100 -223 -307.5 -360.5t-458.5 -137.5q-158 0 -288 62t-210.5 165.5t-112.5 243.5q-17 75 -18 154q0 68 13 139z" />
<glyph unicode="D" horiz-adv-x="1515" d="M63 0l252 1434h191h409q140 0 257 -60t190.5 -160t103.5 -236q16 -73 17 -148q0 -66 -13 -134q-35 -197 -147.5 -355.5t-285.5 -249.5t-373 -91h-529h-72zM285 180h405q147 0 275 72t212 194.5t111 272.5q10 58 10 111q0 86 -26 162q-40 122 -141 191.5t-246 69.5h-412z " />
<glyph unicode="E" horiz-adv-x="1060" d="M63 0l252 1434h191h629l-31 -181h-631l-78 -440h580l-33 -178h-577l-80 -455h641l-33 -180h-758h-72z" />
<glyph unicode="F" horiz-adv-x="1019" d="M63 0l252 1434h191h629l-31 -181h-631l-88 -501h606l-33 -181h-604l-100 -571h-191z" />
<glyph unicode="G" horiz-adv-x="1613" d="M117 745q37 204 158 367t305.5 255.5t398.5 92.5q241 0 406.5 -137.5t185.5 -349.5h-197q-19 133 -135 218t-283 85q-244 0 -426.5 -157t-222.5 -394q-11 -59 -11 -115q0 -92 30 -174q46 -130 159.5 -206t272.5 -76q135 0 249 42t199.5 134t112.5 223l4 -2l2 14h-465 l31 174h649l-29 -174h-2l-98 -565h-184l35 197q-97 -111 -235.5 -167.5t-303.5 -56.5q-157 0 -285 62.5t-207 168t-110 246.5q-17 75 -17 154q0 69 13 141z" />
<glyph unicode="H" horiz-adv-x="1296" d="M63 0l252 1434h191l-109 -607h611l106 607h191l-252 -1434h-191l115 647h-610l-113 -647h-191z" />
<glyph unicode="I" d="M63 0l252 1434h191l-252 -1434h-191z" />
<glyph unicode="J" horiz-adv-x="1091" d="M18 412l7 26h188l-4 -26q-7 -35 -7 -65q0 -78 46 -124q62 -63 186 -63q123 0 209.5 65t110.5 197l176 1012h190l-180 -1024q-20 -115 -72 -202t-125.5 -137t-157 -74t-177.5 -24q-85 0 -161.5 27.5t-135.5 80t-85 138.5q-16 50 -16 107q0 41 8 86z" />
<glyph unicode="K" horiz-adv-x="1208" d="M63 0l252 1434h191l-115 -646l713 646h242l-771 -707l529 -727h-213l-514 705l-123 -705h-191z" />
<glyph unicode="L" horiz-adv-x="993" d="M63 0l252 1434h191l-221 -1254h614l-31 -180h-805z" />
<glyph unicode="M" horiz-adv-x="1648" d="M63 0l252 1434h191h24l271 -975l616 975h240l-252 -1434h-188l196 1120l-555 -878h-164l-243 878l-197 -1120h-191z" />
<glyph unicode="N" horiz-adv-x="1300" d="M63 0l252 1434h146l473 -1063l186 1063h189l-252 -1434h-144l-473 1063l-186 -1063h-191z" />
<glyph unicode="O" horiz-adv-x="1644" d="M117 737q36 205 158.5 370t307.5 259t396 94q153 0 282 -63t211 -167q82 -105 118 -247q20 -81 21 -165q0 -64 -12 -130q-37 -204 -159.5 -367t-308 -255.5t-398.5 -92.5q-203 0 -359 105q-154 104 -224 280q-45 115 -46 241q0 67 13 138zM305 717q-10 -55 -10 -107 q0 -94 32 -176q49 -128 163 -201t270 -73q120 0 231 42t195.5 115t143.5 174.5t79 217.5q10 55 10 107q-1 95 -33 179q-50 130 -165 205.5t-273 75.5q-239 0 -420 -160t-223 -399z" />
<glyph unicode="P" horiz-adv-x="1193" d="M63 0l252 1434h191h328q116 0 209 -64.5t137 -172.5q29 -72 30 -149q0 -39 -8 -79q-32 -187 -180 -306.5t-346 -119.5h-328l-94 -543h-191zM379 721h330q109 0 198 78.5t109 189.5q6 28 6 54q0 76 -48 134q-64 78 -171 78h-330z" />
<glyph unicode="Q" horiz-adv-x="1654" d="M117 737q36 205 158.5 370t307.5 259t396 94q153 0 282 -63t211.5 -167.5t117.5 -246.5q21 -81 21 -165q0 -64 -12 -130q-27 -149 -101.5 -277t-184.5 -223l131 -188l-148 -104l-133 188q-201 -111 -430 -111q-151 0 -279.5 62t-211.5 165t-118 244q-19 78 -19 160 q0 65 12 133zM305 717q-10 -55 -10 -107q0 -93 32 -176q49 -127 163 -200.5t270 -73.5q165 0 301 71l-160 226l150 104l157 -225q163 154 201 373q10 55 10 107q0 95 -33 179q-49 130 -164.5 205.5t-273.5 75.5q-239 0 -420 -160t-223 -399z" />
<glyph unicode="R" horiz-adv-x="1288" d="M63 0l252 1434h191h328q117 0 210.5 -64.5t137.5 -172.5q29 -72 30 -149q0 -39 -8 -79q-24 -146 -124.5 -253t-245.5 -147l389 -569h-215l-375 549h-283l-96 -549h-191zM379 721h334q109 0 197.5 78.5t107.5 189.5q6 28 6 54q0 76 -48 134q-64 78 -173 78h-330z" />
<glyph unicode="S" horiz-adv-x="1128" d="M57 424h189q-5 -30 -6 -57q0 -87 58 -139q74 -68 220 -68q126 0 214.5 58t105.5 155q3 18 3 35q1 30 -9 54q-16 40 -57 70.5t-82.5 51t-106.5 45.5q-79 32 -123 52t-108.5 62t-95.5 85.5t-49 111.5q-10 37 -10 80q0 35 7 72q16 91 65.5 162.5t119 115.5t151.5 67t170 23 q86 0 163 -28t135 -80q59 -52 85 -136q16 -50 15 -105q0 -38 -7 -79h-191q5 29 5 55q0 77 -46 125q-62 64 -186 64q-110 0 -192 -55.5t-99 -149.5q-3 -18 -3 -34q0 -23 6 -43q10 -36 28.5 -60.5t56 -49t69.5 -40t85 -37.5q78 -31 124.5 -52t112 -63t98 -85t51.5 -109 q11 -38 11 -81q0 -31 -6 -65q-22 -121 -103.5 -209t-194 -129t-241.5 -41q-100 0 -186 29.5t-148 84.5q-61 55 -89 143q-16 52 -17 110q0 40 8 84z" />
<glyph unicode="T" horiz-adv-x="1024" d="M168 1253l31 181h569h383l-31 -181h-383l-221 -1253h-188l219 1253h-379z" />
<glyph unicode="U" horiz-adv-x="1269" d="M121 440l174 994h190l-176 -996q-6 -35 -6 -66q0 -90 52 -142q70 -70 218 -70t243.5 71.5t119.5 206.5l174 996h188l-174 -1004q-22 -120 -74.5 -209.5t-130.5 -142.5t-172 -79t-206 -26q-98 0 -182.5 32t-144.5 90q-60 57 -86 147q-15 52 -15 110q0 42 8 88z" />
<glyph unicode="V" horiz-adv-x="1261" d="M178 1434h193l200 -1205l623 1205h215l-760 -1434h-215z" />
<glyph unicode="W" horiz-adv-x="1781" d="M178 1434h182l152 -1217l375 787l-56 430h173l153 -1217l574 1217h198l-686 -1434h-229l-90 698l-336 -698h-230z" />
<glyph unicode="X" horiz-adv-x="1187" d="M-55 0l585 750l-305 684h199l233 -523l408 523h221l-549 -703l326 -731h-199l-254 569l-442 -569h-223z" />
<glyph unicode="Y" horiz-adv-x="1196" d="M178 1434h199l266 -600l475 600h223l-624 -777l-115 -657h-190l116 659z" />
<glyph unicode="Z" horiz-adv-x="1075" d="M-10 0l28 166l881 1087h-670l31 181h901l-28 -164l-883 -1090h708l-32 -180h-936z" />
<glyph unicode="[" horiz-adv-x="552" d="M-10 -205l327 1843h179h256l-29 -172h-258l-266 -1499h260l-33 -172h-383h-53z" />
<glyph unicode="\" horiz-adv-x="1081" d="M276 1638h107l494 -1843h-107z" />
<glyph unicode="]" horiz-adv-x="552" d="M-127 -205l31 172h256l266 1499h-256l29 172h436l-326 -1843h-178h-258z" />
<glyph unicode="^" horiz-adv-x="1064" d="M131 799l481 635h160l260 -635h-190l-172 434l-328 -434h-211z" />
<glyph unicode="_" horiz-adv-x="1064" d="M-68 -309l29 172h911l-28 -172h-912z" />
<glyph unicode="`" horiz-adv-x="462" d="M203 1434l162 -271h172l-123 271h-211z" />
<glyph unicode="a" horiz-adv-x="1030" d="M43 317q13 79 54.5 140.5t99.5 98t124.5 55t137.5 18.5q92 0 166 -34.5t114 -94.5l29 155q5 32 5 59q0 72 -39 112q-54 54 -152 55q-95 0 -165.5 -46.5t-86.5 -134.5h-176q29 160 153.5 255.5t302.5 95.5q168 1 266 -109q75 -84 75 -204q0 -37 -7 -76l-117 -662h-176 l17 94q-115 -121 -308 -121q-95 0 -173 39q-79 40 -121 120q-29 56 -29 122q0 31 6 63zM219 305q-3 -17 -3 -32q0 -57 42 -97q53 -50 164 -51q110 0 189.5 49.5t93.5 126.5q3 15 3 29q0 60 -53 100q-65 48 -170 49q-115 0 -183.5 -47.5t-82.5 -126.5z" />
<glyph unicode="b" horiz-adv-x="1296" d="M45 0l252 1434h178l-100 -572q165 189 416 189q140 0 247.5 -74t156.5 -200q32 -83 33 -176q0 -47 -9 -97q-25 -146 -107.5 -266t-214 -192.5t-285.5 -72.5q-123 0 -215 58t-139 159l-35 -190h-178zM313 512q-6 -37 -6 -70q-1 -111 65 -192q86 -105 240 -105 q159 0 279.5 108t148.5 267q7 39 7 74q0 108 -64 184q-85 102 -240 101.5t-278 -105.5t-152 -262z" />
<glyph unicode="c" horiz-adv-x="1169" d="M82 535q40 227 213.5 371.5t404.5 144.5q180 0 305.5 -104.5t137.5 -264.5h-185q-21 89 -93 142t-181 53q-155 0 -275.5 -102t-148.5 -257q-7 -38 -7 -73q-1 -109 63 -189q84 -106 239 -106q110 0 201.5 51.5t140.5 142.5h188q-66 -171 -216.5 -271t-340.5 -100 q-147 0 -260 77q-112 76 -162 206q-33 85 -33 179q0 49 9 100z" />
<glyph unicode="d" horiz-adv-x="1298" d="M82 535q28 157 116 276t209.5 179.5t256.5 60.5q125 0 224.5 -56.5t151.5 -160.5l107 600h178l-252 -1434h-178l25 147q-156 -174 -408 -174q-145 0 -254 79q-110 78 -156 207q-30 83 -29 173q0 50 9 103zM260 520q-7 -39 -7 -74q-1 -110 65 -192q86 -108 243 -109 q145 0 260.5 87.5t153.5 226.5l16 88q1 17 1 32q0 131 -82 211q-92 89 -232 89q-95 0 -181 -39.5t-151.5 -123t-85.5 -196.5z" />
<glyph unicode="e" horiz-adv-x="1173" d="M82 532q40 230 206 374.5t400 144.5q143 0 250 -75q108 -76 154 -200q30 -81 31 -169q0 -48 -9 -97q-11 -50 -20 -80h-176h-668q0 -137 81 -216t218 -79q99 0 179 41t122 109h188q-69 -143 -204.5 -227.5t-311.5 -84.5q-149 0 -260 75.5t-159 203.5q-31 82 -31 174 q0 52 10 106zM274 588h672v14q0 134 -72 206q-76 76 -200 75q-147 0 -252 -79t-148 -216z" />
<glyph unicode="f" horiz-adv-x="645" d="M92 852l29 172h166l6 31q37 212 169 316q115 91 296 91q26 0 53 -2l-31 -172q-21 2 -41 2q-227 0 -268 -235l-6 -31h268l-31 -172h-268l-149 -852h-179l150 852h-164z" />
<glyph unicode="g" horiz-adv-x="1300" d="M53 -43h176q-1 -10 -1 -20q0 -75 66 -137q76 -70 216 -70q163 0 266.5 83.5t128.5 229.5l21 121q-153 -180 -412 -180q-144 0 -253 77t-157 205q-31 83 -31 175q0 48 9 98q21 118 77.5 216t134.5 162t172 99t193 35q128 0 229.5 -58.5t155.5 -163.5l33 195h176l-172 -981 q-21 -124 -78.5 -218.5t-139 -150t-176.5 -83t-202 -27.5q-90 0 -171.5 28t-142 78t-93.5 125q-26 62 -26 132q0 15 1 30zM260 524q-6 -36 -6 -69q0 -111 66 -193q86 -108 243 -108q152 0 271.5 95t150.5 243l4 30q5 33 5 63q0 48 -12 90q-21 69 -65.5 113.5t-106 68.5 t-132.5 24q-94 0 -180.5 -39.5t-152 -122.5t-85.5 -195z" />
<glyph unicode="h" horiz-adv-x="1071" d="M45 0l252 1434h178l-92 -529q129 146 322 146q143 1 227 -109q62 -81 63 -193q0 -40 -8 -83l-117 -666h-178l117 657q5 29 5 54q0 69 -36 113q-48 60 -143 59q-65 0 -124 -26.5t-110 -92.5t-71 -162l-107 -602h-178z" />
<glyph unicode="i" horiz-adv-x="450" d="M45 0l180 1024h178l-180 -1024h-178zM260 1208l37 226h178l-37 -226h-178z" />
<glyph unicode="j" horiz-adv-x="493" d="M-203 -436l31 172q18 -1 34 -1q85 0 136 39q61 47 82 165l190 1085h179l-191 -1085q-37 -215 -150 -302q-98 -75 -258 -75q-26 0 -53 2zM303 1208l39 226h178l-39 -226h-178z" />
<glyph unicode="k" horiz-adv-x="1028" d="M45 0l252 1434h178l-149 -852l514 442h229l-577 -496l415 -528h-205l-391 502l-88 -502h-178z" />
<glyph unicode="l" horiz-adv-x="450" d="M45 0l111 623l149 852h178l-149 -857l-111 -618h-178z" />
<glyph unicode="m" horiz-adv-x="1572" d="M45 0l180 1024h178l-16 -100q116 127 287 127q74 0 136.5 -41.5t92.5 -114.5q130 156 326 156q129 -1 211 -99q60 -73 61 -180q0 -39 -8 -82l-121 -690h-178l119 684q6 31 6 56q1 58 -29 92q-42 49 -121 49q-36 0 -72.5 -12t-74.5 -38t-68 -76.5t-45 -119.5l-110 -635 h-178l118 684q5 30 5 55q0 59 -29 93q-42 49 -119 49q-37 0 -73.5 -12t-74 -38t-67.5 -75t-45 -115l-113 -641h-178z" />
<glyph unicode="n" horiz-adv-x="1071" d="M45 0l180 1024h178l-20 -117q127 144 317 144q147 -1 232 -107q63 -79 63 -193q0 -40 -8 -85l-117 -666h-178l117 657q5 31 5 57q0 71 -35 112q-48 57 -144 57q-48 0 -93.5 -15.5t-87.5 -47t-74.5 -87.5t-49.5 -131l-107 -602h-178z" />
<glyph unicode="o" horiz-adv-x="1234" d="M80 530q21 120 83 220t148 165t189.5 100.5t210.5 35.5q106 0 197.5 -41t153.5 -112q62 -72 88 -176q15 -58 14 -122q0 -50 -9 -102q-21 -122 -81.5 -223t-145 -166t-185 -100.5t-204.5 -35.5q-110 0 -204 41t-158 112q-63 72 -91 178q-15 59 -16 122q0 50 10 104z M258 512q-6 -38 -6 -73q0 -45 10 -85q18 -71 60 -116q42 -44 102 -68q57 -23 123 -23h6q71 0 139.5 24t127.5 69t101.5 116.5t57.5 159.5q7 39 7 74q0 42 -10 80q-18 70 -61 114.5t-103 68.5t-130 24q-69 -1 -137 -25t-126.5 -68.5t-101.5 -115t-59 -156.5z" />
<glyph unicode="p" horiz-adv-x="1296" d="M-27 -410l252 1434h178l-28 -160q79 89 185 138t231 49q140 0 247.5 -74t156.5 -200q32 -83 32 -176q0 -47 -8 -97q-25 -146 -107.5 -266t-214 -192.5t-285.5 -72.5q-123 0 -215 58t-139 157l-106 -598h-179zM313 502q-5 -33 -5 -63q0 -112 67 -192q85 -102 237 -102 q159 0 279.5 108t148.5 267q7 39 7 74q0 107 -64 184q-85 101 -240 101q-152 0 -274.5 -102.5t-153.5 -254.5z" />
<glyph unicode="q" horiz-adv-x="1298" d="M82 535q28 157 116 276t209.5 179.5t256.5 60.5q125 0 224.5 -58.5t151.5 -163.5l35 195h178l-252 -1434h-178l99 560q-156 -177 -412 -177q-145 0 -253.5 78.5t-154.5 207.5q-29 82 -29 172q0 51 9 104zM260 520q-7 -39 -7 -74q0 -111 65 -192q87 -109 243 -109 q152 0 270 95t150 245l4 31q5 34 5 65q0 49 -12 91q-20 70 -64.5 114.5t-105.5 68.5t-132 24q-94 0 -179.5 -39.5t-151 -123t-85.5 -196.5z" />
<glyph unicode="r" horiz-adv-x="661" d="M45 0l180 1024h178l-24 -139q120 157 321 157h17l-33 -186h-16q-73 0 -138 -24q-72 -28 -131.5 -101.5t-79.5 -185.5l-96 -545h-178z" />
<glyph unicode="s" horiz-adv-x="956" d="M51 307h176q-4 -21 -4 -39q-1 -58 39 -88q52 -40 148 -41q94 0 160 35.5t77 104.5q2 11 2 20q-1 27 -15 50q-20 30 -58 47t-87.5 35t-102.5 32.5t-101.5 39.5t-84 56.5t-51.5 84.5q-9 30 -9 66q0 27 5 56q24 133 139.5 209t274.5 76q104 0 183.5 -38.5t119.5 -116.5 q27 -53 27 -116q0 -30 -6 -63h-176q4 21 4 40q0 56 -37 87q-49 41 -131 41q-83 0 -145.5 -34t-73.5 -101q-2 -11 -2 -20q0 -28 14 -50q20 -30 58.5 -48t88 -35.5t102 -32t101 -40t84 -57.5t51.5 -85q9 -30 9 -66q0 -27 -5 -56q-24 -134 -142 -210.5t-290 -76.5 q-175 0 -273 90q-76 69 -76 177q0 32 7 67z" />
<glyph unicode="t" horiz-adv-x="657" d="M98 852l31 172h201l59 328h178l-59 -328h203l-31 -172h-201l-149 -852h-178l149 852h-203z" />
<glyph unicode="u" horiz-adv-x="1071" d="M84 360l117 664h178l-115 -657q-6 -31 -6 -58q0 -65 34 -107q48 -58 144 -59q103 0 188 69.5t117 209.5l107 602h178l-180 -1024h-178l18 115q-116 -142 -307 -142q-149 0 -237 108q-66 81 -66 196q0 40 8 83z" />
<glyph unicode="v" horiz-adv-x="983" d="M106 1024h181l141 -821l432 821h199l-557 -1024h-178h-23z" />
<glyph unicode="w" horiz-adv-x="1423" d="M111 1024h180l115 -815l258 502l-52 313h166l121 -805l395 805h199l-528 -1024h-174h-9l-77 465l-242 -465h-164h-18z" />
<glyph unicode="x" horiz-adv-x="937" d="M-59 0l436 537l-234 487h187l162 -344l280 344h201l-406 -500l250 -524h-186l-180 379l-308 -379h-202z" />
<glyph unicode="y" horiz-adv-x="983" d="M106 1024h181l172 -774l403 774h197l-754 -1434h-192l221 424z" />
<glyph unicode="z" horiz-adv-x="923" d="M-14 0l22 119l645 735h-495l30 170h748l-23 -119l-645 -735h537l-29 -170h-790z" />
<glyph unicode="{" horiz-adv-x="724" d="M123 633l33 172q103 -2 154.5 32t70.5 144l57 330q36 202 147 282.5t306 65.5l-31 -172q-110 11 -166.5 -25.5t-77.5 -150.5l-57 -330q-21 -118 -67 -179.5t-125 -88.5q135 -57 100 -256l-57 -330q-21 -112 22.5 -149.5t155.5 -26.5l-29 -172q-188 -15 -274 75.5 t-54 272.5l58 330q19 111 -20.5 144.5t-145.5 31.5z" />
<glyph unicode="|" horiz-adv-x="485" d="M-8 -410l332 1885h178l-332 -1885h-178z" />
<glyph unicode="}" horiz-adv-x="724" d="M-94 -221l31 172q110 -11 167 26t76 150l58 330q21 117 67.5 179t124.5 91q-135 54 -100 254l57 330q21 112 -22.5 149.5t-155.5 26.5l31 172q187 15 272 -75.5t53 -272.5l-57 -330q-19 -109 21.5 -143.5t144.5 -32.5l-33 -172q-102 2 -154 -32.5t-71 -143.5l-58 -330 q-36 -202 -146.5 -282.5t-305.5 -65.5z" />
<glyph unicode="~" horiz-adv-x="1220" d="M135 637q74 187 219.5 232.5t319.5 -66.5q93 -60 157 -69.5t106 23.5t79 111l141 -73q-74 -186 -217.5 -231t-321.5 67q-92 58 -156.5 67t-107 -23.5t-80.5 -109.5z" />
<glyph unicode="&#xa2;" horiz-adv-x="1169" d="M117 739q40 227 214 371.5t406 144.5q46 0 101 -10l94 189h110l-108 -217q106 -45 171.5 -132t74.5 -198h-187q-25 120 -139 168l-342 -693q33 -8 80 -8q110 0 201 52t141 143h188q-67 -171 -217 -270t-340 -99q-67 0 -135 19l-98 -199h-111l117 238q-127 69 -188.5 205 t-32.5 296zM297 723q-19 -104 14 -189t109 -133l336 678q-12 2 -35 2q-155 0 -275.5 -101.5t-148.5 -256.5z" />
<glyph unicode="&#xa3;" horiz-adv-x="1198" d="M-14 0l32 184h181l65 373h-143l29 166h143l53 299q19 109 68 194t117 137.5t148.5 79.5t168.5 27q77 0 147.5 -28.5t125 -81t79 -138t6.5 -190.5l-10 -59h-190l10 59q22 127 -33.5 190.5t-161.5 63.5q-103 0 -183.5 -64t-102.5 -190l-54 -299h445l-29 -166h-444l-66 -373 h723l-33 -184h-1091z" />
<glyph unicode="&#xa5;" horiz-adv-x="1196" d="M119 340l22 135h355l20 113h-354l22 133h316l-322 713h199l266 -600l475 600h223l-573 -713h317l-22 -133h-358l-21 -113h358l-22 -135h-358l-60 -340h-190l59 340h-352z" />
<glyph unicode="&#xa8;" horiz-adv-x="671" d="M158 1176l32 188h191l-33 -188h-190zM557 1176l33 188h190l-32 -188h-191z" />
<glyph unicode="&#xa9;" horiz-adv-x="1636" d="M108.5 530.5q-11.5 95.5 8.5 198.5q27 151 107.5 286.5t195 232.5t261.5 153.5t300 56.5q119 0 225.5 -39t185.5 -108t134 -164t71.5 -206.5t-2.5 -235.5q-36 -202 -162.5 -369.5t-312.5 -264t-391 -96.5q-99 0 -190.5 27.5t-164 77t-130.5 119t-91 153t-44.5 179z M182 717q-25 -139 6.5 -265t106.5 -217t190.5 -144.5t251.5 -53.5q186 0 356.5 91t286 247t148.5 342q24 139 -7.5 265t-106.5 217t-190 144.5t-251 53.5q-186 0 -356.5 -91t-286 -247t-148.5 -342zM461 731q29 164 162 272.5t303 108.5q136 0 231 -87t100 -212h-172 q-7 65 -59 102t-125 37q-105 0 -181.5 -70t-92.5 -165q-18 -95 34.5 -165.5t155.5 -70.5q74 0 139 37.5t95 104.5h174q-51 -136 -170 -218.5t-264 -82.5q-107 0 -190.5 56t-121 150.5t-18.5 202.5z" />
<glyph unicode="&#xab;" horiz-adv-x="1050" d="M160 633l286 375h203l-293 -385l154 -363h-193zM508 631l289 377h202l-294 -387l153 -361h-192z" />
<glyph unicode="&#xad;" horiz-adv-x="1054" d="M160 543l28 172h748l-29 -172h-747z" />
<glyph unicode="&#xae;" horiz-adv-x="1636" d="M108.5 530.5q-11.5 95.5 8.5 198.5q27 151 107.5 286.5t195 232.5t261.5 153.5t300 56.5q119 0 225.5 -39t185.5 -108t134 -164t71.5 -206.5t-2.5 -235.5q-36 -202 -162.5 -369.5t-312.5 -264t-391 -96.5q-99 0 -190.5 27.5t-164 77t-130.5 119t-91 153t-44.5 179z M182 717q-25 -139 6.5 -265t106.5 -217t190.5 -144.5t251.5 -53.5q186 0 356.5 91t286 247t148.5 342q24 139 -7.5 265t-106.5 217t-190 144.5t-251 53.5q-186 0 -356.5 -91t-286 -247t-148.5 -342zM545 338l133 758h158h106q125 0 193.5 -77.5t50.5 -182.5 q-31 -164 -174 -220l159 -278h-167l-144 250h-8h-107l-43 -250h-157zM770 731h100q65 0 106 29.5t50 79.5q9 51 -21 79.5t-96 28.5h-100z" />
<glyph unicode="&#xb4;" horiz-adv-x="458" d="M156 1163h176l248 271h-220z" />
<glyph unicode="&#xb8;" horiz-adv-x="512" d="M-127 -442l25 135q132 -10 204 7t80 56q6 36 -36.5 55t-120.5 19l28 170h154l-17 -92q73 -15 114.5 -63.5t29.5 -112.5q-7 -44 -31.5 -77t-74.5 -59.5t-139.5 -36.5t-215.5 -1z" />
<glyph unicode="&#xbb;" horiz-adv-x="1052" d="M94 260l297 385l-155 363h192l158 -373l-289 -375h-203zM444 260l295 383l-155 365h192l160 -375l-289 -373h-203z" />
<glyph unicode="&#x2c6;" horiz-adv-x="712" d="M154 1157l264 277h190h6l170 -277h-184l-96 164l-156 -164h-194z" />
<glyph unicode="&#x2da;" horiz-adv-x="544" d="M184 1343q17 93 91 152t178 59q97 0 154 -66t40 -159q-18 -94 -90 -152.5t-178 -58.5q-97 0 -153.5 65.5t-41.5 159.5zM319 1337q-6 -42 14 -68t66 -26t77.5 26.5t37.5 65.5q8 41 -14 68t-68 27t-75.5 -26t-37.5 -67z" />
<glyph unicode="&#x2dc;" horiz-adv-x="696" d="M164 1174q11 81 38 138.5t63 85t79 34.5t86.5 -8t83.5 -48q29 -24 47.5 -36.5t37.5 -18.5t31 3.5t23 33t19 65.5h149q-14 -99 -52 -162t-87 -82.5t-103.5 -8.5t-105.5 53q-30 24 -48.5 36.5t-38 18t-32 -3.5t-23.5 -33.5t-18 -66.5h-149z" />
<glyph unicode="&#x401;" horiz-adv-x="1060" d="M63 0l252 1434h191h629l-31 -181h-631l-78 -440h580l-33 -178h-577l-80 -455h641l-33 -180h-758h-72zM459 1585l33 189h190l-33 -189h-190zM858 1585l33 189h190l-32 -189h-191z" />
<glyph unicode="&#x402;" horiz-adv-x="1351" d="M168 1253l31 181h555h442l-31 -181h-444l-62 -358q144 63 281 63q77 0 142 -25.5t111 -73.5t64.5 -124t2.5 -170l-37 -209q-73 -401 -461 -374l31 176q107 -11 163 35t76 163l35 199q22 119 -25.5 175t-148.5 56q-119 0 -266 -69l-125 -717h-191l221 1253h-364z" />
<glyph unicode="&#x403;" horiz-adv-x="993" d="M63 0l252 1434h805l-30 -181h-617l-219 -1253h-191zM627 1571l204 270h220l-248 -270h-176z" />
<glyph unicode="&#x404;" horiz-adv-x="1544" d="M117 735q36 205 153 369.5t299 260t396 95.5q247 0 413.5 -139t188.5 -358h-199q-20 144 -134.5 228.5t-293.5 84.5q-219 0 -385 -131t-229 -338h739l-33 -178h-737q-9 -207 110.5 -338t337.5 -131q180 0 324.5 84.5t214.5 226.5h201q-94 -223 -300 -360.5t-468 -137.5 q-153 0 -279.5 61t-205 164t-110 243.5t-3.5 293.5z" />
<glyph unicode="&#x405;" horiz-adv-x="1128" d="M57 424h189q-23 -128 51.5 -196t220.5 -68q126 0 214.5 58t105.5 155q9 49 -6.5 88.5t-56.5 70.5t-82.5 51.5t-106.5 45.5q-79 32 -123 52t-108.5 62t-95.5 85.5t-49 112t-3 151.5q16 91 65.5 162.5t119 115.5t151.5 67t170 23q86 0 163 -28t135 -80t84.5 -135.5 t8.5 -184.5h-191q21 117 -41.5 180.5t-185.5 63.5q-110 0 -192 -55.5t-99 -149.5q-7 -42 2.5 -77.5t28.5 -60t56.5 -49t69.5 -40t85 -37.5q78 -31 124.5 -52t112 -63t98 -85t51.5 -109.5t5 -145.5q-22 -121 -103.5 -209t-194 -129t-241.5 -41q-100 0 -186 29.5t-148 84.5 t-89.5 142.5t-8.5 194.5z" />
<glyph unicode="&#x406;" d="M63 0l252 1434h191l-252 -1434h-191z" />
<glyph unicode="&#x407;" d="M63 0l252 1434h191l-252 -1434h-191zM141 1585l33 189h191l-33 -189h-191zM541 1585l32 189h191l-33 -189h-190z" />
<glyph unicode="&#x408;" horiz-adv-x="1091" d="M18 412l7 26h188l-4 -26q-24 -126 38.5 -189t186.5 -63q123 0 209.5 65t110.5 197l176 1012h190l-180 -1024q-20 -115 -72 -202t-125.5 -137t-157 -74t-177.5 -24q-85 0 -161.5 27.5t-135.5 80t-85.5 138.5t-7.5 193z" />
<glyph unicode="&#x409;" horiz-adv-x="1935" d="M-61 -2l28 172q69 -9 122.5 8t100 66.5t82 143t60.5 233.5l141 813h813l-104 -588h291q89 0 166 -34t127.5 -92.5t72.5 -140t6 -171.5q-32 -182 -179 -295t-343 -113h-408h-71l221 1253h-432l-113 -632q-24 -134 -58 -238t-76 -172.5t-92.5 -115.5t-107 -68t-119 -29.5 t-128.5 0.5zM1065 178h291q109 0 194 68.5t105 179.5q20 108 -41.5 175t-171.5 67h-291z" />
<glyph unicode="&#x40a;" horiz-adv-x="1910" d="M63 0l252 1434h191l-105 -588h568l104 588h191l-105 -588h291q182 0 293 -128t78 -310q-32 -182 -179 -295t-342 -113h-407h-72l117 668h-567l-117 -668h-191zM1042 178h289q109 0 195 69t106 179q20 108 -42.5 175t-172.5 67h-289z" />
<glyph unicode="&#x40b;" horiz-adv-x="1361" d="M168 1253l31 181h555h442l-31 -181h-444l-62 -358q144 63 281 63q77 0 142 -25.5t111 -73.5t64.5 -124t2.5 -170l-101 -565h-190l98 555q22 119 -25.5 175t-148.5 56q-119 0 -266 -69l-125 -717h-191l221 1253h-364z" />
<glyph unicode="&#x40c;" horiz-adv-x="1208" d="M63 0l252 1434h191l-115 -646l713 646h242l-771 -707l529 -727h-213l-514 705l-123 -705h-191zM668 1571l204 270h220l-248 -270h-176z" />
<glyph unicode="&#x40e;" horiz-adv-x="1187" d="M143 0l31 172q117 -9 197 39t147 162l23 39l-322 1022h182l256 -822l478 822h194l-633 -1094q-112 -193 -243.5 -272t-309.5 -68zM518 1585l27 156h553l-27 -156h-553z" />
<glyph unicode="&#x40f;" horiz-adv-x="1296" d="M63 0l252 1434h191l-221 -1254h608l221 1254h191l-252 -1434h-191h-211l-49 -295h-190l51 295h-328h-72z" />
<glyph unicode="&#x410;" horiz-adv-x="1306" d="M-76 0l783 1434h215l278 -1434h-201l-55 322h-639l-174 -322h-207zM401 500h510l-125 710z" />
<glyph unicode="&#x411;" horiz-adv-x="1202" d="M63 0l252 1434h191h670l-31 -181h-672l-67 -383h350l-33 -178h-348l-90 -514h348q108 0 196.5 74t108.5 184q22 117 -43 193.5t-170 62.5l31 178q117 0 209.5 -61.5t135.5 -167t21 -225.5q-32 -184 -177 -300t-343 -116h-467h-72z" />
<glyph unicode="&#x412;" horiz-adv-x="1404" d="M63 0l252 1434h191h358q94 0 169.5 -31t120 -82.5t62.5 -117.5t5 -136q-20 -99 -95 -184q117 -61 171.5 -177.5t29.5 -259.5q-23 -124 -91 -223.5t-183 -161t-258 -61.5h-695h-37zM285 178h516q131 0 224.5 84t115.5 209t-43 209t-193 84h-518zM418 938h477q23 0 59 -4 q64 58 76 135q14 79 -30.5 132.5t-135.5 53.5h-391z" />
<glyph unicode="&#x413;" horiz-adv-x="993" d="M63 0l252 1434h805l-30 -181h-617l-219 -1253h-191z" />
<glyph unicode="&#x414;" horiz-adv-x="1368" d="M-111 -295l82 473h123q79 79 135.5 197.5t89.5 308.5l132 750h858l-222 -1256h156l-84 -473h-188l51 295h-891l-51 -295h-191zM317 178h582l191 1077h-480l-102 -575q-59 -334 -191 -502z" />
<glyph unicode="&#x415;" horiz-adv-x="1060" d="M63 0l252 1434h191h629l-31 -181h-631l-78 -440h580l-33 -178h-577l-80 -455h641l-33 -180h-758h-72z" />
<glyph unicode="&#x416;" horiz-adv-x="1777" d="M-55 0l712 748l-442 686h201l426 -658l114 658h191l-117 -656l633 656h223l-686 -715l453 -719h-201l-436 688l-121 -688h-190l120 686l-655 -686h-225z" />
<glyph unicode="&#x417;" horiz-adv-x="1095" d="M25 455h190q-23 -129 47 -215t223 -86q152 0 251 86.5t122 216.5q22 127 -44 207.5t-202 80.5h-106l31 173h106q22 0 78 -9q62 39 94 89.5t39 97.5q16 83 -31.5 134.5t-152.5 51.5q-106 0 -172 -53t-82 -137h-189q29 162 153 265t316 103q174 0 275 -107.5t73 -260.5 q-22 -138 -155 -250q93 -63 137 -168.5t21 -229.5q-35 -207 -188.5 -339t-389.5 -132q-152 0 -262.5 65t-157.5 175t-24 242z" />
<glyph unicode="&#x418;" horiz-adv-x="1300" d="M63 0l252 1434h191l-187 -1049l836 1049h154l-252 -1434h-189l185 1049l-836 -1049h-154z" />
<glyph unicode="&#x419;" horiz-adv-x="1300" d="M63 0l252 1434h191l-187 -1049l836 1049h154l-252 -1434h-189l185 1049l-836 -1049h-154zM563 1587l27 156h553l-27 -156h-553z" />
<glyph unicode="&#x41a;" horiz-adv-x="1208" d="M63 0l252 1434h191l-115 -646l713 646h242l-771 -707l529 -727h-213l-514 705l-123 -705h-191z" />
<glyph unicode="&#x41b;" horiz-adv-x="1318" d="M-61 -2l28 172q69 -9 122.5 8t100 66.5t82 143t60.5 233.5l141 813h854l-252 -1434h-190l221 1253h-473l-113 -632q-29 -162 -74 -279.5t-97.5 -186.5t-121.5 -107.5t-136.5 -48t-151.5 -1.5z" />
<glyph unicode="&#x41c;" horiz-adv-x="1648" d="M63 0l252 1434h191h24l271 -975l616 975h240l-252 -1434h-188l196 1120l-555 -878h-164l-243 878l-197 -1120h-191z" />
<glyph unicode="&#x41d;" horiz-adv-x="1296" d="M63 0l252 1434h191l-109 -607h611l106 607h191l-252 -1434h-191l115 647h-610l-113 -647h-191z" />
<glyph unicode="&#x41e;" horiz-adv-x="1644" d="M117 737q36 205 158.5 370t307.5 259t396 94q153 0 282 -63t211.5 -167.5t118 -246.5t8.5 -295q-37 -204 -159.5 -367t-308 -255.5t-398.5 -92.5q-203 0 -358.5 104.5t-225 280.5t-32.5 379zM305 717q-27 -155 22 -282.5t163 -201t270 -73.5q120 0 231 42t195.5 115 t143.5 174.5t79 217.5q27 156 -22.5 286t-165 205.5t-273.5 75.5q-239 0 -420 -160t-223 -399z" />
<glyph unicode="&#x41f;" horiz-adv-x="1296" d="M63 0l252 1434h191h799l-252 -1434h-191l221 1253h-610l-219 -1253h-191z" />
<glyph unicode="&#x420;" horiz-adv-x="1193" d="M63 0l252 1434h191h328q116 0 209 -64.5t137 -172.5t22 -228q-32 -187 -180 -306.5t-346 -119.5h-328l-94 -543h-191zM379 721h330q109 0 198 78.5t109 189.5q22 110 -41.5 188t-171.5 78h-330z" />
<glyph unicode="&#x421;" horiz-adv-x="1556" d="M117 737q27 154 104 287.5t189 229.5t258.5 151t306.5 55q238 0 412 -140.5t196 -356.5h-199q-28 142 -142.5 227.5t-283.5 85.5q-125 0 -238 -43t-197.5 -118t-142 -178t-77.5 -220q-28 -156 18.5 -282.5t162 -200.5t280.5 -74q164 0 310.5 85.5t221.5 225.5h203 q-100 -223 -307.5 -360.5t-458.5 -137.5q-158 0 -288 62t-210.5 165.5t-113 243.5t-4.5 293z" />
<glyph unicode="&#x422;" horiz-adv-x="1024" d="M168 1253l31 181h569h383l-31 -181h-383l-221 -1253h-188l219 1253h-379z" />
<glyph unicode="&#x423;" horiz-adv-x="1187" d="M143 0l31 172q117 -9 197 39t147 162l23 39l-322 1022h182l256 -822l478 822h194l-633 -1094q-112 -193 -243.5 -272t-309.5 -68z" />
<glyph unicode="&#x424;" horiz-adv-x="1660" d="M96 729q29 167 136 288.5t270 187t370 77.5l29 162h186l-28 -164q192 -17 332 -87.5t208.5 -197t38.5 -290.5q-45 -249 -254.5 -392t-523.5 -161l-29 -162h-186l29 164q-194 17 -333.5 87.5t-207 196.5t-37.5 291zM285 717q-33 -179 78.5 -277t338.5 -114l140 782 q-234 -15 -380 -113t-177 -278zM891 326q233 15 378.5 113t178.5 278q31 180 -80.5 278t-339.5 113z" />
<glyph unicode="&#x425;" horiz-adv-x="1187" d="M-55 0l585 750l-305 684h199l233 -523l408 523h221l-549 -703l326 -731h-199l-254 569l-442 -569h-223z" />
<glyph unicode="&#x426;" horiz-adv-x="1361" d="M63 0l252 1434h191l-221 -1254h610l219 1254h191l-222 -1254h154l-82 -475h-190l51 295h-953z" />
<glyph unicode="&#x427;" horiz-adv-x="1247" d="M195 922l90 512h190l-88 -500q-22 -122 39 -189t195 -67q170 0 323 63l121 693h190l-251 -1434h-191l98 551q-151 -53 -319 -53q-205 0 -317 118t-80 306z" />
<glyph unicode="&#x428;" horiz-adv-x="1859" d="M63 0l252 1434h191l-221 -1254h491l221 1254h189l-219 -1254h491l219 1254h191l-252 -1434h-1553z" />
<glyph unicode="&#x429;" horiz-adv-x="1925" d="M63 0l252 1434h191l-221 -1254h491l221 1254h189l-219 -1254h491l219 1254h191l-221 -1254h153l-82 -475h-190l51 295h-1516z" />
<glyph unicode="&#x42a;" horiz-adv-x="1417" d="M131 1253l31 181h563l-94 -543h327q117 0 210.5 -64.5t137.5 -172t23 -228.5q-32 -187 -180 -306.5t-346 -119.5h-518l221 1253h-375zM506 178h328q111 0 199.5 78t109.5 190q20 110 -43 188.5t-170 78.5h-332z" />
<glyph unicode="&#x42b;" horiz-adv-x="1609" d="M63 0l252 1434h191l-96 -543h329q116 0 209.5 -64.5t137.5 -172.5t22 -228q-32 -188 -179.5 -307t-346.5 -119h-519zM285 178h329q110 0 199.5 78.5t108.5 189.5q22 110 -41.5 188.5t-171.5 78.5h-330zM1178 0l252 1434h188l-252 -1434h-188z" />
<glyph unicode="&#x42c;" horiz-adv-x="1196" d="M63 0l252 1434h191l-96 -543h329q116 0 209.5 -64.5t137.5 -172.5t22 -228q-32 -188 -179.5 -307t-346.5 -119h-447h-72zM285 178h329q110 0 199.5 78.5t108.5 189.5q22 110 -41.5 188.5t-171.5 78.5h-330z" />
<glyph unicode="&#x42d;" horiz-adv-x="1546" d="M47 471h203q25 -143 137 -227t291 -84q217 0 382 131t230 338h-737l33 178h735q9 206 -110 337.5t-337 131.5q-176 0 -319.5 -85.5t-218.5 -227.5h-201q97 225 302.5 361t465.5 136q206 0 357 -104t214.5 -278t26.5 -378q-28 -155 -102.5 -288.5t-184 -230.5t-256 -152.5 t-309.5 -55.5q-249 0 -414.5 139.5t-187.5 358.5z" />
<glyph unicode="&#x42e;" horiz-adv-x="2144" d="M63 0l252 1434h191l-109 -607h248q79 278 309 455.5t525 177.5q152 0 281 -63t211.5 -167.5t117.5 -246.5t8 -295q-37 -204 -159.5 -367t-307.5 -255.5t-397 -92.5q-189 0 -335.5 90.5t-221 244.5t-62.5 339h-247l-113 -647h-191zM805 717q-28 -155 21 -282.5t163.5 -201 t270.5 -73.5q241 0 424 156.5t225 392.5q26 156 -24 286t-165.5 205.5t-271.5 75.5q-158 0 -296.5 -74t-229.5 -201.5t-117 -283.5z" />
<glyph unicode="&#x42f;" horiz-adv-x="1280" d="M-59 0l583 561q-100 24 -170.5 91.5t-98.5 160.5t-11 195q33 181 180 303.5t350 122.5h514l-252 -1434h-188l96 549h-196l-566 -549h-241zM432 993q-21 -112 44.5 -192t185.5 -80h311l94 534h-319q-114 0 -205 -75t-111 -187z" />
<glyph unicode="&#x430;" horiz-adv-x="1030" d="M43 317q13 79 54.5 140.5t99.5 98t124.5 55t137.5 18.5q92 0 166 -34.5t114 -94.5l29 155q20 117 -34 171.5t-152 54.5q-95 0 -165.5 -46.5t-86.5 -134.5h-176q29 160 153.5 255.5t302.5 95.5q168 0 266 -109.5t68 -279.5l-117 -662h-176l17 94q-115 -121 -308 -121 q-95 0 -173 39t-120.5 119.5t-23.5 185.5zM219 305q-14 -79 39 -129.5t164 -50.5q110 0 189.5 49.5t93.5 126.5q15 81 -50 129.5t-170 48.5q-115 0 -183.5 -47.5t-82.5 -126.5z" />
<glyph unicode="&#x431;" horiz-adv-x="1161" d="M78 520q23 125 80 230.5t131 177t159 131.5t168 105t152.5 86t117 87.5t58.5 96.5h186q-13 -69 -51 -126t-92 -98.5t-118.5 -78t-136 -72.5t-137.5 -73t-130 -89t-107 -111q162 138 338 138q93 0 174.5 -37t137.5 -100t81 -153.5t7 -191.5q-37 -208 -197.5 -338.5 t-384.5 -130.5q-108 0 -198.5 40.5t-149.5 111.5t-83.5 174t-4.5 221zM252 465q-24 -139 58.5 -229.5t224.5 -90.5q145 0 252.5 87.5t130.5 222.5t-57 223t-226 88q-129 0 -243.5 -82t-139.5 -219z" />
<glyph unicode="&#x432;" horiz-adv-x="1077" d="M45 0l180 1024h174h256q143 0 221.5 -84t59.5 -205q-15 -70 -66 -127q76 -45 110 -123.5t19 -167.5q-25 -141 -134 -229t-294 -88h-526zM246 158h346q96 0 156.5 48t74.5 132q15 81 -30.5 124.5t-139.5 43.5h-346zM334 655h354q5 0 16.5 -1t16.5 -1q31 40 39 78 q12 68 -29.5 104t-114.5 33h-245z" />
<glyph unicode="&#x433;" horiz-adv-x="774" d="M45 0l180 1024h631l-31 -172h-452l-150 -852h-178z" />
<glyph unicode="&#x434;" horiz-adv-x="1173" d="M-106 -295l81 463h123q63 67 103.5 154t66.5 227l82 475h176h443h96l-150 -856h140l-80 -463h-176l51 295h-727l-51 -295h-178zM309 168h430l121 690h-362l-54 -309q-43 -234 -135 -381z" />
<glyph unicode="&#x435;" horiz-adv-x="1173" d="M82 532q40 230 206 374.5t400 144.5q143 0 250.5 -75t154 -199.5t21.5 -266.5q-11 -50 -20 -80h-176h-668q0 -137 81 -216t218 -79q99 0 179 41t122 109h188q-69 -143 -204.5 -227.5t-311.5 -84.5q-149 0 -260 75.5t-159 204t-21 279.5zM274 588h672q4 144 -72.5 219.5 t-199.5 75.5q-147 0 -252 -79t-148 -216z" />
<glyph unicode="&#x436;" horiz-adv-x="1427" d="M-55 0l524 545l-324 479h191l297 -451l80 451h176l-80 -461l446 461h207l-495 -508l333 -516h-188l-317 492l-86 -492h-177l86 487l-471 -487h-202z" />
<glyph unicode="&#x437;" horiz-adv-x="870" d="M4 315h178q-15 -81 36.5 -127.5t152.5 -46.5q100 0 166 46.5t81 129.5q13 81 -37 128t-149 47h-80l27 149h84q26 0 80 -8q74 52 84 117q13 66 -27 101.5t-111 35.5q-72 0 -124 -36.5t-66 -109.5h-174q25 141 128 225.5t263 84.5q151 0 231 -88.5t56 -212.5 q-17 -102 -113 -175q64 -47 91.5 -119.5t13.5 -156.5q-28 -144 -144 -235t-303 -91q-182 0 -276 99t-68 243z" />
<glyph unicode="&#x438;" horiz-adv-x="1095" d="M45 0l180 1024h176l-122 -702l628 702h144l-181 -1024h-176l123 705l-629 -705h-143z" />
<glyph unicode="&#x439;" horiz-adv-x="1095" d="M45 0l180 1024h176l-122 -702l628 702h144l-181 -1024h-176l123 705l-629 -705h-143zM389 1178l27 155h553l-27 -155h-553z" />
<glyph unicode="&#x43a;" horiz-adv-x="1028" d="M45 0l180 1024h178l-77 -442l514 442h229l-577 -496l415 -528h-205l-391 502l-88 -502h-178z" />
<glyph unicode="&#x43b;" horiz-adv-x="1077" d="M-70 -4l29 168q104 -11 166 50t92 224l102 586h179h534l-180 -1024h-178l149 852h-356l-72 -418q-19 -110 -52 -190.5t-74 -130.5t-96 -78t-112.5 -36t-130.5 -3z" />
<glyph unicode="&#x43c;" horiz-adv-x="1306" d="M45 0l180 1024h176h9l213 -616l428 616h209l-181 -1024h-174l131 743l-379 -540h-118l-187 540l-131 -743h-176z" />
<glyph unicode="&#x43d;" horiz-adv-x="1095" d="M45 0l180 1024h178l-73 -426h467l75 426h179l-181 -1024h-178l74 428h-467l-76 -428h-178z" />
<glyph unicode="&#x43e;" horiz-adv-x="1234" d="M80 530q21 120 83 220t148 165t189.5 100.5t210.5 35.5q106 0 197.5 -41t153 -112.5t88 -176t5.5 -223.5q-21 -122 -81.5 -223t-145 -166t-185 -100.5t-204.5 -35.5q-110 0 -204 41t-158 112.5t-91.5 177t-5.5 226.5zM258 512q-14 -87 4 -158t60.5 -115.5t102 -68.5 t128.5 -23q71 0 139.5 24t127.5 69t101.5 116.5t57.5 159.5q15 85 -3 154.5t-61 114t-103 68.5t-130 24q-69 -1 -137 -25t-126.5 -68.5t-101.5 -115t-59 -156.5z" />
<glyph unicode="&#x43f;" horiz-adv-x="1095" d="M45 0l180 1024h178h648l-181 -1024h-178l150 854h-467l-152 -854h-178z" />
<glyph unicode="&#x440;" horiz-adv-x="1296" d="M-27 -410l252 1434h178l-28 -160q79 89 185 138t231 49q140 0 247.5 -74t156.5 -200t24 -273q-25 -146 -107.5 -266t-214 -192.5t-285.5 -72.5q-123 0 -215 58t-139 157l-106 -598h-179zM313 502q-23 -153 62 -255t237 -102q159 0 279.5 108t148.5 267q28 156 -57 257.5 t-240 101.5q-152 0 -274.5 -102.5t-153.5 -254.5z" />
<glyph unicode="&#x441;" horiz-adv-x="1169" d="M82 535q40 227 213.5 371.5t404.5 144.5q180 0 305.5 -104.5t137.5 -264.5h-185q-21 89 -93 142t-181 53q-155 0 -275.5 -102t-148.5 -257q-27 -156 56.5 -262t238.5 -106q110 0 201.5 51.5t140.5 142.5h188q-66 -171 -216.5 -271t-340.5 -100q-147 0 -259.5 77 t-162.5 206.5t-24 278.5z" />
<glyph unicode="&#x442;" horiz-adv-x="835" d="M82 854l29 170h487h307l-31 -170h-307l-149 -854h-178l149 854h-307z" />
<glyph unicode="&#x443;" horiz-adv-x="993" d="M-20 -410l28 166q98 -7 170 44.5t133 160.5l33 51l-227 1012h180l172 -786l401 786h199l-571 -1087q-98 -185 -230 -271.5t-288 -75.5z" />
<glyph unicode="&#x444;" horiz-adv-x="1386" d="M80 526q37 212 204 353.5t414 164.5l68 390h176l-68 -392q229 -28 349.5 -181.5t83.5 -362.5q-37 -213 -204 -354t-415 -164l-70 -390h-176l70 392q-152 18 -259.5 95t-152 194.5t-20.5 254.5zM256 512q-25 -140 50.5 -238.5t234.5 -121.5l127 720q-167 -23 -277 -121 t-135 -239zM717 152q167 23 277.5 121t135.5 239t-50.5 240t-235.5 120z" />
<glyph unicode="&#x445;" horiz-adv-x="937" d="M-59 0l436 537l-234 487h187l162 -344l280 344h201l-406 -500l250 -524h-186l-180 379l-308 -379h-202z" />
<glyph unicode="&#x446;" horiz-adv-x="1157" d="M45 0l180 1024h178l-149 -854h442l150 854h178l-150 -854h166l-79 -465h-177l52 295h-791z" />
<glyph unicode="&#x447;" horiz-adv-x="1032" d="M119 664l63 360h178l-61 -350q-32 -193 174 -193q121 0 248 54l88 489h178l-180 -1024h-178l61 358q-111 -43 -254 -43q-168 0 -257 93.5t-60 255.5z" />
<glyph unicode="&#x448;" horiz-adv-x="1552" d="M45 0l180 1024h178l-149 -854h373l149 854h178l-149 -854h373l149 854h178l-180 -1024h-178h-551h-463h-88z" />
<glyph unicode="&#x449;" horiz-adv-x="1603" d="M45 0l180 1024h178l-149 -854h367l151 854h178l-151 -854h368l150 854h178l-149 -854h141l-31 -170l-51 -295h-176l51 295h-510h-547h-178z" />
<glyph unicode="&#x44a;" horiz-adv-x="1130" d="M61 854l29 170h369h94l-66 -369h254q145 0 234.5 -99t62.5 -243q-24 -145 -136.5 -229t-274.5 -84h-365h-67l149 854h-283zM401 166h254q76 0 136 44.5t73 117.5q12 73 -32 118.5t-119 45.5h-254z" />
<glyph unicode="&#x44b;" horiz-adv-x="1372" d="M45 0l180 1024h178l-63 -369h254q145 0 234 -99t63 -243q-26 -145 -139 -229t-275 -84h-364h-68zM252 166h254q76 0 136.5 44.5t72.5 117.5q13 73 -31.5 118.5t-120.5 45.5h-254zM967 0l180 1024h178l-180 -1024h-178z" />
<glyph unicode="&#x44c;" horiz-adv-x="983" d="M45 0l180 1024h178l-63 -369h254q145 0 234 -99t63 -243q-26 -145 -139 -229t-275 -84h-364h-68zM252 166h254q76 0 136.5 44.5t72.5 117.5q13 73 -31.5 118.5t-120.5 45.5h-254z" />
<glyph unicode="&#x44d;" horiz-adv-x="1163" d="M23 344h184q21 -91 96.5 -146t190.5 -55q131 0 239 79.5t154 205.5h-459l31 168h456q-3 126 -82 205.5t-208 79.5q-113 0 -210.5 -54t-146.5 -145h-186q68 164 223 266.5t340 102.5q146 0 256 -74.5t159 -202t23 -276.5q-40 -228 -212.5 -376.5t-403.5 -148.5 q-181 0 -307.5 104t-136.5 267z" />
<glyph unicode="&#x44e;" horiz-adv-x="1646" d="M45 0l180 1024h178l-73 -426h188q60 209 229.5 331t374.5 122q106 0 197.5 -41t153.5 -112.5t88.5 -176t5.5 -223.5q-21 -122 -81 -223t-144.5 -166t-185 -100.5t-204.5 -35.5q-201 0 -332 125.5t-128 329.5h-193l-76 -428h-178zM670 512q-29 -171 60 -269t235 -96 q71 0 139.5 24t127.5 69t101.5 116.5t57.5 159.5q16 84 -2 154t-61.5 114.5t-103.5 68.5t-130 24q-147 -2 -270 -99t-154 -266z" />
<glyph unicode="&#x44f;" horiz-adv-x="1036" d="M-59 0l401 385q-104 35 -160.5 124.5t-36.5 199.5q25 140 138.5 227.5t271.5 87.5h436l-180 -1024h-176l65 369h-157l-379 -369h-223zM322 692q-13 -74 31 -119t122 -45h252l59 330h-254q-77 0 -137.5 -46.5t-72.5 -119.5z" />
<glyph unicode="&#x451;" horiz-adv-x="1173" d="M82 532q40 230 206 374.5t400 144.5q143 0 250.5 -75t154 -199.5t21.5 -266.5q-11 -50 -20 -80h-176h-668q0 -137 81 -216t218 -79q99 0 179 41t122 109h188q-69 -143 -204.5 -227.5t-311.5 -84.5q-149 0 -260 75.5t-159 204t-21 279.5zM274 588h672q4 144 -72.5 219.5 t-199.5 75.5q-147 0 -252 -79t-148 -216zM434 1178l33 188h190l-32 -188h-191zM834 1178l32 188h191l-33 -188h-190z" />
<glyph unicode="&#x452;" horiz-adv-x="1081" d="M63 0l205 1165h-137l23 131h137l24 138h179l-25 -138h295l-23 -131h-295l-45 -260q126 146 322 146q69 0 127.5 -28.5t98 -78.5t55.5 -122.5t2 -155.5l-129 -727q-36 -206 -150 -296.5t-309 -78.5l31 172q107 -9 168 40t81 163l129 718q18 107 -30.5 166.5t-143.5 59.5 q-104 0 -190 -69.5t-115 -211.5l-106 -602h-179z" />
<glyph unicode="&#x453;" horiz-adv-x="774" d="M45 0l180 1024h631l-31 -172h-452l-150 -852h-178zM401 1163l205 271h219l-247 -271h-177z" />
<glyph unicode="&#x454;" horiz-adv-x="1165" d="M80 526q40 228 212.5 376.5t401.5 148.5q181 0 307.5 -104.5t141.5 -264.5h-187q-20 90 -97.5 144.5t-188.5 54.5q-131 0 -238.5 -79t-155.5 -206h459l-30 -168h-457q3 -126 82.5 -205.5t208.5 -79.5q115 0 213 54t145 147h184q-62 -165 -217 -268t-342 -103 q-148 0 -259 74.5t-160 202t-23 276.5z" />
<glyph unicode="&#x455;" horiz-adv-x="956" d="M51 307h176q-16 -87 35.5 -127.5t147.5 -40.5q94 0 160 35.5t77 104.5q7 40 -12.5 70t-58 47t-88 35t-102.5 32.5t-101.5 39.5t-84 56.5t-51.5 84.5t-4 122q24 133 139.5 209t274.5 76q104 0 183.5 -38.5t119.5 -116t21 -179.5h-176q16 86 -33 127t-131 41 q-83 0 -145.5 -34t-73.5 -101q-7 -40 12.5 -70.5t58 -48t88 -35t102 -32t101 -40t84 -57.5t51.5 -85t4 -122q-24 -134 -142 -210.5t-290 -76.5q-175 0 -273 90t-69 244z" />
<glyph unicode="&#x456;" horiz-adv-x="450" d="M45 0l180 1024h178l-180 -1024h-178zM260 1208l37 226h178l-37 -226h-178z" />
<glyph unicode="&#x457;" horiz-adv-x="450" d="M45 0l180 1024h178l-180 -1024h-178zM47 1176l33 188h190l-32 -188h-191zM446 1176l33 188h191l-33 -188h-191z" />
<glyph unicode="&#x458;" horiz-adv-x="493" d="M-203 -436l31 172q109 -9 170 38t82 165l190 1085h179l-191 -1085q-37 -215 -150.5 -302t-310.5 -73zM303 1208l39 226h178l-39 -226h-178z" />
<glyph unicode="&#x459;" horiz-adv-x="1546" d="M-70 -4l29 168q105 -14 166.5 47.5t91.5 226.5l102 586h179h417h97l-72 -403h229q137 0 221.5 -91.5t59.5 -234.5q-26 -142 -131.5 -218.5t-259.5 -76.5h-338h-68l150 852h-336l-72 -418q-24 -135 -67.5 -226t-105 -138t-131.5 -63.5t-161 -10.5zM860 166h230 q68 0 120.5 36t65.5 107q11 73 -27.5 109.5t-107.5 36.5h-230z" />
<glyph unicode="&#x45a;" horiz-adv-x="1562" d="M45 0l180 1024h178l-71 -403h448l72 403h178l-72 -403h228q138 0 222 -91t60 -235q-27 -143 -132.5 -219t-258.5 -76h-338h-67l78 451h-447l-80 -451h-178zM879 166h227q70 0 122.5 36t63.5 107q13 72 -26 109t-107 37h-229z" />
<glyph unicode="&#x45b;" horiz-adv-x="1089" d="M63 0l205 1165h-137l23 131h137l24 138h179l-25 -138h295l-23 -131h-295l-45 -260q126 146 320 146q69 0 127.5 -28.5t98.5 -78.5t56.5 -122.5t2.5 -155.5l-117 -666h-178l116 657q18 107 -31 165.5t-143 58.5q-105 0 -190.5 -68.5t-114.5 -208.5l-106 -604h-179z" />
<glyph unicode="&#x45c;" horiz-adv-x="1028" d="M45 0l180 1024h178l-77 -442l514 442h229l-577 -496l415 -528h-205l-391 502l-88 -502h-178zM508 1163l205 271h219l-248 -271h-176z" />
<glyph unicode="&#x45e;" horiz-adv-x="993" d="M-20 -410l28 166q98 -7 170 44.5t133 160.5l33 51l-227 1012h180l172 -786l401 786h199l-571 -1087q-98 -185 -230 -271.5t-288 -75.5zM334 1178l26 155h553l-26 -155h-553z" />
<glyph unicode="&#x45f;" horiz-adv-x="1095" d="M45 0l180 1024h178l-149 -854h467l151 854h179l-181 -1024h-178h-145l-51 -295h-177l52 295h-238h-88z" />
<glyph unicode="&#x490;" horiz-adv-x="972" d="M63 0l252 1434h594l45 245h191l-62 -331l-14 -95h-596l-219 -1253h-191z" />
<glyph unicode="&#x491;" horiz-adv-x="774" d="M45 0l180 1024h455l37 211h176l-68 -383h-452l-150 -852h-178z" />
<glyph unicode="&#x2000;" horiz-adv-x="920" />
<glyph unicode="&#x2001;" horiz-adv-x="1841" />
<glyph unicode="&#x2002;" horiz-adv-x="920" />
<glyph unicode="&#x2003;" horiz-adv-x="1841" />
<glyph unicode="&#x2004;" horiz-adv-x="613" />
<glyph unicode="&#x2005;" horiz-adv-x="460" />
<glyph unicode="&#x2006;" horiz-adv-x="306" />
<glyph unicode="&#x2007;" horiz-adv-x="306" />
<glyph unicode="&#x2008;" horiz-adv-x="230" />
<glyph unicode="&#x2009;" horiz-adv-x="368" />
<glyph unicode="&#x200a;" horiz-adv-x="102" />
<glyph unicode="&#x2010;" horiz-adv-x="1054" d="M160 543l28 172h748l-29 -172h-747z" />
<glyph unicode="&#x2011;" horiz-adv-x="1054" d="M160 543l28 172h748l-29 -172h-747z" />
<glyph unicode="&#x2012;" horiz-adv-x="1054" d="M160 543l28 172h748l-29 -172h-747z" />
<glyph unicode="&#x2013;" horiz-adv-x="1312" d="M160 543l28 172h1006l-31 -172h-1003z" />
<glyph unicode="&#x2014;" horiz-adv-x="1517" d="M160 543l28 172h1211l-31 -172h-1208z" />
<glyph unicode="&#x2018;" d="M215 952l39 219q44 249 268 273l-16 -94q-56 -8 -89 -48t-50 -131h108l-39 -219h-221z" />
<glyph unicode="&#x2019;" d="M215 942l16 94q56 8 90 47.5t50 130.5h-109l39 220h221l-39 -220q-43 -248 -268 -272z" />
<glyph unicode="&#x201a;" d="M0 -272l16 94q56 8 90 47.5t50 130.5h-107l39 221h219l-39 -221q-44 -248 -268 -272z" />
<glyph unicode="&#x201c;" horiz-adv-x="815" d="M215 952l39 219q44 249 268 273l-16 -94q-56 -8 -89 -48t-50 -131h108l-39 -219h-221zM532 952l39 219q44 249 269 273l-17 -94q-56 -8 -89 -48t-50 -131h109l-39 -219h-222z" />
<glyph unicode="&#x201d;" horiz-adv-x="815" d="M215 942l16 94q56 8 90 47.5t50 130.5h-109l39 220h221l-39 -220q-43 -248 -268 -272zM532 942l17 94q56 8 89.5 47.5t49.5 130.5h-106l39 222h219l-39 -222q-44 -248 -269 -272z" />
<glyph unicode="&#x201e;" horiz-adv-x="815" d="M0 -272l16 94q56 8 90 47.5t50 130.5h-107l39 221h219l-39 -221q-44 -248 -268 -272zM317 -272l17 94q56 8 89.5 47.5t49.5 130.5h-106l39 221h219l-39 -221q-44 -248 -269 -272z" />
<glyph unicode="&#x2026;" horiz-adv-x="1327" d="M49 0l39 221h219l-39 -221h-219zM463 0l39 221h221l-39 -221h-221zM879 0l39 221h219l-39 -221h-219z" />
<glyph unicode="&#x202f;" horiz-adv-x="368" />
<glyph unicode="&#x2039;" horiz-adv-x="702" d="M160 633l289 375h202l-295 -385l156 -363h-193z" />
<glyph unicode="&#x203a;" horiz-adv-x="704" d="M94 260l297 383l-158 365h193l162 -375l-291 -373h-203z" />
<glyph unicode="&#x205f;" horiz-adv-x="460" />
<glyph unicode="&#x20ac;" horiz-adv-x="1286" d="M31 539l22 133h137q2 10 5.5 30.5t5.5 28.5q2 18 10 49h-137l22 131h148q83 258 248.5 403.5t390.5 145.5q202 0 317.5 -136.5t106.5 -362.5h-193q6 152 -62.5 233.5t-199.5 81.5q-139 0 -244.5 -94.5t-167.5 -270.5h486l-23 -131h-500q-9 -28 -12 -63q-4 -15 -8 -45h500 l-23 -133h-489q-3 -184 69.5 -281.5t214.5 -97.5q133 0 232.5 85.5t146.5 243.5h193q-70 -244 -224.5 -380t-375.5 -136q-217 0 -334 154t-111 412h-151z" />
<glyph unicode="&#x2122;" horiz-adv-x="952" d="M223 1346l17 88h209h114l-16 -88h-113l-57 -322h-94l55 322h-115zM537 1024l71 410h94h11l67 -217l146 217h110l-71 -410h-97l43 246l-106 -158h-74l-55 162l-45 -250h-94z" />
<glyph unicode="&#x25fc;" horiz-adv-x="1024" d="M0 0v1024h1024v-1024h-1024z" />
</font>
</defs>
</svg>
