<?xml version="1.0" standalone="no"?>
<!DOCTYPE svg PUBLIC "-//W3C//DTD SVG 1.1//EN" "http://www.w3.org/Graphics/SVG/1.1/DTD/svg11.dtd" >
<svg xmlns="http://www.w3.org/2000/svg" xmlns:xlink="http://www.w3.org/1999/xlink" version="1.1">
<metadata></metadata>
<defs>
<font id="qanelaslight_italic" horiz-adv-x="1099" >
<font-face units-per-em="2048" ascent="1638" descent="-410" />
<missing-glyph horiz-adv-x="546" />
<glyph horiz-adv-x="0" />
<glyph horiz-adv-x="682" />
<glyph unicode=" "  horiz-adv-x="546" />
<glyph unicode="&#x09;" horiz-adv-x="546" />
<glyph unicode="&#xa0;" horiz-adv-x="546" />
<glyph unicode="!" horiz-adv-x="450" d="M68 0l28 164h137l-30 -164h-135zM160 369l94 655l72 410h123l-72 -410l-135 -655h-82z" />
<glyph unicode="&#x22;" horiz-adv-x="600" d="M217 1051l53 383h111l-82 -383h-82zM492 1051l53 383h108l-80 -383h-81z" />
<glyph unicode="#" horiz-adv-x="1234" d="M72 485l30 95h246l94 274h-247l32 94h248l131 383h103l-131 -383h315l131 383h102l-131 -383h242l-33 -94h-241l-95 -274h246l-33 -95h-245l-131 -383h-103l131 383h-315l-131 -383h-103l131 383h-243zM451 580h315l94 274h-315z" />
<glyph unicode="$" horiz-adv-x="1128" d="M68 393h110q-24 -130 46.5 -211t215.5 -96l107 608q-30 13 -55 24t-53.5 25.5t-50.5 29t-46 32t-41.5 36.5t-33.5 41.5t-26 47.5t-16.5 53.5t-6 61.5t6.5 69q28 153 154.5 243t302.5 99l33 182h94l-33 -184q161 -18 256.5 -123.5t67.5 -265.5h-111q21 115 -43.5 192 t-187.5 91l-103 -584q90 -37 146.5 -67.5t117.5 -81t83 -121t6 -160.5q-19 -109 -90.5 -190t-174.5 -122.5t-227 -44.5l-33 -182h-94l33 187q-182 20 -283.5 127.5t-70.5 283.5zM336 1104q-10 -58 3 -105t49 -83t77.5 -61.5t101.5 -51.5l97 547q-129 -9 -219.5 -75 t-108.5 -171zM535 82q143 6 243.5 76.5t120.5 185.5q11 61 -4.5 110t-58 86.5t-87 62.5t-112.5 54z" />
<glyph unicode="%" horiz-adv-x="1548" d="M121 0l1253 1434h127l-1255 -1434h-125zM244 1157q23 129 126 214t240 85q133 0 208 -91.5t52 -219.5q-24 -129 -125.5 -214t-240.5 -85q-132 0 -207.5 91.5t-52.5 219.5zM344 1151q-15 -90 34 -150.5t142 -60.5t163 60t87 151q15 90 -34 150.5t-142 60.5 q-91 0 -162 -60.5t-88 -150.5zM752 289q23 129 126 214t240 85q133 0 208 -92t52 -220q-22 -128 -125.5 -213.5t-240.5 -85.5q-131 0 -206.5 92t-53.5 220zM852 283q-14 -91 35 -151t141 -60q93 0 164 60.5t86 150.5t-34 150.5t-142 60.5q-91 0 -162 -60.5t-88 -150.5z" />
<glyph unicode="&#x26;" horiz-adv-x="1345" d="M90 399q23 127 106.5 227t213.5 167q-99 142 -70 297q30 169 165.5 267.5t315.5 98.5q82 0 153 -26.5t122 -75t73.5 -123.5t6.5 -166h-109q24 133 -49.5 210t-212.5 77q-135 0 -234 -75t-122 -196q-24 -150 102 -299l420 -499q110 137 151 360h109q-46 -268 -195 -438 l170 -205h-135l-110 131q-186 -154 -465 -154q-202 0 -320.5 119t-85.5 303zM199 389q-24 -138 64.5 -222.5t248.5 -84.5q235 0 383 127l-426 506q-114 -56 -183 -141.5t-87 -184.5z" />
<glyph unicode="'" horiz-adv-x="321" d="M217 1051l53 383h111l-82 -383h-82z" />
<glyph unicode="(" horiz-adv-x="514" d="M162 727q83 477 387 911h102q-305 -449 -387 -921t62 -922h-103q-145 449 -61 932z" />
<glyph unicode=")" horiz-adv-x="514" d="M-66 -205q306 450 388 922t-62 921h105q144 -455 61 -931q-82 -473 -387 -912h-105z" />
<glyph unicode="*" horiz-adv-x="792" d="M246 1163l14 88l195 -4l-82 162l86 47l69 -170l129 170l76 -47l-135 -162l195 4l-15 -88l-194 4l80 -161l-84 -48l-70 172l-129 -172l-78 48l137 161z" />
<glyph unicode="+" horiz-adv-x="1091" d="M158 668l16 98h367l65 367h101l-66 -367h367l-19 -98h-364l-66 -367h-100l65 367h-366z" />
<glyph unicode="," horiz-adv-x="450" d="M14 -258l13 68q40 11 65 47.5t39 115.5h-61l32 191h138l-35 -191q-17 -102 -63.5 -159t-127.5 -72z" />
<glyph unicode="-" horiz-adv-x="1091" d="M190 584l17 98h737l-16 -98h-738z" />
<glyph unicode="." horiz-adv-x="438" d="M59 0l31 164h135l-28 -164h-138z" />
<glyph unicode="/" horiz-adv-x="1079" d="M-39 -205l1141 1843h86l-1139 -1843h-88z" />
<glyph unicode="0" horiz-adv-x="1294" d="M131 425q-15 138 16 304q60 338 232.5 532.5t433.5 194.5q123 0 214.5 -55t142 -154.5t65.5 -237.5t-16 -304q-60 -338 -232.5 -533t-433.5 -195q-123 0 -214.5 55.5t-142 155t-65.5 237.5zM256 717q-52 -300 31.5 -467.5t283.5 -167.5t342.5 167.5t196.5 467.5 q52 300 -31.5 467.5t-283.5 167.5t-342.5 -167.5t-196.5 -467.5z" />
<glyph unicode="1" horiz-adv-x="679" d="M141 1114l23 127l391 193h109l-252 -1434h-109l229 1309z" />
<glyph unicode="2" horiz-adv-x="1079" d="M-2 0l18 98l617 535q129 111 208.5 208.5t98.5 192.5q25 149 -50 233.5t-214 84.5q-144 0 -251 -82.5t-134 -233.5h-109q18 101 67.5 182.5t118.5 132.5t151 78t169 27q84 0 157 -30t124.5 -84t74 -137t5.5 -181q-21 -118 -110 -229.5t-239 -239.5l-524 -451h742 l-19 -104h-901z" />
<glyph unicode="3" horiz-adv-x="1107" d="M37 414h110q-27 -153 60 -242.5t250 -89.5t282 89.5t146 242.5q27 152 -61 241.5t-251 89.5h-77l12 72l448 514h-696l19 103h825l-17 -103l-428 -493q171 -21 268 -138t66 -297q-36 -199 -191 -312.5t-358 -113.5q-97 0 -178.5 30t-139 84.5t-82.5 138t-7 184.5z" />
<glyph unicode="4" horiz-adv-x="1161" d="M20 301l19 102l725 1031h123l-723 -1031h647l78 451h110l-79 -451h184l-19 -102h-184l-53 -301h-109l54 301h-773z" />
<glyph unicode="5" horiz-adv-x="1128" d="M68 414h110q-27 -153 59.5 -242.5t249.5 -89.5t282 89.5t146 242.5q27 151 -60 241t-251 90h-403l170 689h778l-19 -103h-677l-119 -481h289q91 0 171.5 -31.5t137.5 -88t83 -142t9 -185.5q-36 -200 -189.5 -313t-359.5 -113q-128 0 -227.5 50.5t-151 152t-28.5 234.5z " />
<glyph unicode="6" d="M59 459q29 174 150 295l584 680h133l-459 -533q86 21 154 21q136 0 235 -62t142.5 -173t19.5 -249q-37 -209 -191.5 -335t-371.5 -126q-205 0 -319.5 137t-76.5 345zM168 449q-30 -162 53 -264.5t252 -102.5q170 0 288 102t148 265t-53 264.5t-254 101.5 q-170 0 -288 -101.5t-146 -264.5z" />
<glyph unicode="7" horiz-adv-x="1003" d="M156 0l784 1331h-747l16 103h868l-18 -103l-785 -1331h-118z" />
<glyph unicode="8" horiz-adv-x="1128" d="M68 393q21 125 105.5 215.5t213.5 134.5q-89 52 -131.5 138.5t-22.5 197.5q16 92 64 165.5t116 119t148.5 69t167.5 23.5q82 0 153.5 -26.5t124 -75t76 -125t7.5 -168.5q-20 -113 -91.5 -196t-177.5 -128q109 -51 162.5 -146t32.5 -218q-34 -189 -184 -292.5t-363 -103.5 q-129 0 -227.5 49t-147.5 145t-26 222zM176 383q-26 -140 60 -220.5t251 -80.5q169 0 281 80t137 221q24 138 -63 218.5t-248 80.5q-166 0 -280 -80t-138 -219zM342 1069q-23 -128 55.5 -204.5t214.5 -76.5q141 0 243 75.5t126 205.5q22 133 -54.5 208t-213.5 75 q-139 0 -243 -75t-128 -208z" />
<glyph unicode="9" horiz-adv-x="1103" d="M154 997q37 209 192 334t373 125q135 0 234 -62t143 -173.5t20 -249.5q-30 -170 -147 -291l-586 -680h-131l455 532q-82 -20 -156 -20q-135 0 -234.5 62t-143 173.5t-19.5 249.5zM262 985q-28 -163 54.5 -265t252.5 -102t289.5 102t149.5 265q28 162 -55.5 264.5 t-252.5 102.5q-171 0 -290.5 -102.5t-147.5 -264.5z" />
<glyph unicode=":" horiz-adv-x="438" d="M59 0l31 164h135l-28 -164h-138zM211 860l31 164h135l-29 -164h-137z" />
<glyph unicode=";" horiz-adv-x="450" d="M14 -258l13 68q40 11 65 47.5t39 115.5h-61l32 191h138l-35 -191q-17 -102 -63.5 -159t-127.5 -72zM225 860l29 164h137l-29 -164h-137z" />
<glyph unicode="&#x3c;" horiz-adv-x="1079" d="M158 664l8 53l10 53l883 365l-23 -121l-751 -303l645 -303l-19 -109z" />
<glyph unicode="=" d="M121 463l18 98h840l-18 -98h-840zM195 872l16 99h840l-17 -99h-839z" />
<glyph unicode="&#x3e;" horiz-adv-x="1079" d="M92 299l23 121l751 303l-645 303l19 109l753 -365l-8 -53l-10 -53z" />
<glyph unicode="?" horiz-adv-x="1089" d="M186 1065q33 181 181 286t340 105q83 0 153.5 -25.5t120.5 -72.5t72 -119.5t6 -159.5q-11 -63 -43 -120.5t-75.5 -102.5t-94.5 -88t-101.5 -86.5t-94 -88.5t-75.5 -103t-43 -121h-110q13 73 46.5 138.5t77.5 115t95 95t101.5 87.5t93 83.5t74 92.5t40.5 106 q23 127 -49 196t-215 69q-147 0 -257 -77.5t-134 -209.5h-109zM344 0l29 164h137l-31 -164h-135z" />
<glyph unicode="@" horiz-adv-x="1654" d="M98 526q36 202 162.5 369t314.5 262.5t398 95.5q93 0 175.5 -21.5t145.5 -60t116 -91.5t86 -115.5t55 -133t23 -143t-9 -145.5q-20 -113 -59 -197t-89 -130.5t-102.5 -68.5t-108.5 -22q-84 0 -133.5 47.5t-50.5 134.5q-50 -58 -120 -90.5t-148 -32.5q-137 0 -218.5 98 t-56.5 236q25 139 134 230.5t255 91.5q73 0 130.5 -34.5t88.5 -94.5l21 114h98l-80 -456q-30 -187 103 -187q96 0 172 93t108 278q24 136 -5 256.5t-101 206.5t-186 136t-252 50q-191 0 -364.5 -88.5t-293 -245.5t-153.5 -350q-27 -147 5.5 -276.5t112.5 -221.5t206 -145 t280 -53q208 0 360 57l-4 -53q-160 -55 -366 -55q-163 0 -298 58t-221.5 158t-122.5 240t-8 299zM578 512q-18 -103 39 -168t159 -65q98 0 177.5 63.5t99.5 163.5l2 12q15 100 -42 163.5t-155 63.5q-100 0 -181 -65.5t-99 -167.5z" />
<glyph unicode="A" horiz-adv-x="1288" d="M-59 0l809 1434h114l303 -1434h-110l-76 365h-717l-205 -365h-118zM322 467h639l-170 833z" />
<glyph unicode="B" horiz-adv-x="1398" d="M88 0l252 1434h109h421q116 0 198 -50t114 -126q20 -50 20 -103q0 -29 -6 -59q-20 -107 -102 -195q126 -55 186 -175q42 -84 43 -183q0 -43 -8 -88q-17 -92 -62 -174t-112.5 -145t-160.5 -99.5t-198 -36.5h-673h-21zM215 102h571q157 0 276 107t146 262q7 40 7 77 q1 106 -59 186q-80 106 -238 106h-574zM362 942h533q55 0 94 -8q79 64 98 166q4 24 4 46q0 68 -42 118q-56 66 -168 67h-451z" />
<glyph unicode="C" horiz-adv-x="1574" d="M124 534q-4 33 -4 66q0 64 13 131q36 203 157.5 368.5t307 261t397.5 95.5q226 0 394.5 -129t199.5 -330h-116q-33 159 -164 257t-322 98q-140 0 -268.5 -50t-225.5 -135.5t-163.5 -202t-89.5 -247.5q-11 -60 -10 -117q0 -66 14 -130q27 -116 94.5 -202t178.5 -136 t249 -50q185 0 351.5 98t256.5 256h119q-105 -206 -307 -332.5t-443 -126.5q-105 0 -198.5 27.5t-165.5 77.5t-128.5 119t-86.5 153t-40 180z" />
<glyph unicode="D" horiz-adv-x="1531" d="M88 0l252 1434h109h471q141 0 257.5 -59.5t188.5 -159t101 -234.5q15 -71 16 -145q0 -67 -13 -136q-26 -147 -98 -276t-176.5 -222.5t-241.5 -147.5t-286 -54h-533h-47zM215 102h471q165 0 310.5 83t241.5 223t126 309q11 64 11 124q0 99 -29 185q-46 140 -162 222.5 t-281 82.5h-473z" />
<glyph unicode="E" horiz-adv-x="1064" d="M88 0l252 1434h109h679l-18 -103h-680l-98 -557h629l-19 -102h-627l-100 -570h690l-18 -102h-752h-47z" />
<glyph unicode="F" horiz-adv-x="1028" d="M88 0l252 1434h109h679l-18 -103h-680l-106 -614h655l-18 -103h-656l-108 -614h-109z" />
<glyph unicode="G" horiz-adv-x="1638" d="M135 743q36 203 158 365.5t307 255t399 92.5q231 0 390.5 -128.5t187.5 -330.5h-113q-26 158 -158 256.5t-321 98.5q-181 0 -340.5 -82t-264.5 -224.5t-134 -316.5q-10 -66 -10 -127q0 -39 4 -76q10 -95 53.5 -176.5t109 -141t160 -93t205.5 -33.5q144 0 270.5 46 t224 147t132.5 245l14 84h-524l16 103h635l-16 -103h-2l-107 -604h-108l43 248q-100 -135 -256 -203t-340 -68q-161 0 -291 62t-209 167t-110 244q-17 76 -17 155q0 67 12 138z" />
<glyph unicode="H" horiz-adv-x="1296" d="M88 0l252 1434h109l-113 -646h723l112 646h111l-252 -1434h-110l120 686h-723l-120 -686h-109z" />
<glyph unicode="I" horiz-adv-x="464" d="M88 0l252 1434h109l-252 -1434h-109z" />
<glyph unicode="J" horiz-adv-x="1093" d="M35 393l2 17h110l-4 -17q-7 -39 -7 -73q0 -97 57 -157q77 -81 227 -81q145 0 251.5 81t133.5 230l182 1041h111l-183 -1043q-24 -139 -103 -234.5t-182.5 -137.5t-226.5 -42q-84 0 -157.5 27.5t-127.5 78t-78 131.5q-13 46 -13 97q0 39 8 82z" />
<glyph unicode="K" horiz-adv-x="1169" d="M88 0l252 1434h109l-117 -668l815 668h147l-850 -705l615 -729h-131l-606 715l-125 -715h-109z" />
<glyph unicode="L" horiz-adv-x="1009" d="M88 0l252 1434h109l-234 -1332h676l-19 -102h-784z" />
<glyph unicode="M" horiz-adv-x="1652" d="M88 0l252 1434h109h18l326 -1055l696 1055h147l-252 -1434h-108l219 1255l-661 -1001h-107l-309 1001l-221 -1255h-109z" />
<glyph unicode="N" horiz-adv-x="1290" d="M88 0l252 1434h86l526 -1221l213 1221h109l-252 -1434h-86l-524 1221l-215 -1221h-109z" />
<glyph unicode="O" horiz-adv-x="1677" d="M133 733q36 202 160.5 367.5t310 260.5t393.5 95q202 0 357 -104t225 -280q47 -117 46 -246q0 -64 -11 -132q-37 -202 -161.5 -366.5t-310 -257.5t-394.5 -93q-202 0 -356 103t-224 277q-46 116 -47 244q0 64 12 132zM244 717q-11 -61 -11 -119q0 -106 37 -200 q57 -146 188 -231t308 -85q179 0 338 83.5t264 227.5t135 318q10 60 10 116q0 107 -37 204q-57 147 -188.5 234t-308.5 87t-336 -85t-264.5 -230.5t-134.5 -319.5z" />
<glyph unicode="P" horiz-adv-x="1181" d="M88 0l252 1434h109h380q66 0 126 -23.5t105.5 -64t77.5 -96.5t42 -120q4 -30 4 -61q0 -36 -6 -74q-29 -174 -172 -290.5t-326 -116.5h-381l-102 -588h-109zM317 690h381q133 0 241.5 93.5t131.5 226.5q6 33 6 63q0 93 -57 164q-76 94 -207 94h-383z" />
<glyph unicode="Q" horiz-adv-x="1687" d="M133 733q36 202 160.5 367.5t310 260.5t393.5 95q202 0 357 -104.5t225 -279.5q47 -118 47 -246q0 -65 -12 -132q-29 -156 -112 -291t-206 -233l140 -199l-84 -59l-140 199q-219 -134 -464 -134q-202 0 -356.5 103t-223.5 277q-47 116 -47 244q0 64 12 132zM244 717 q-11 -61 -11 -119q0 -106 37 -200q57 -146 188 -231t308 -85q210 0 387 113l-164 233l84 59l164 -233q105 88 174 205.5t92 251.5q10 60 10 116q0 108 -37 204q-57 147 -188.5 234t-308.5 87t-336 -85t-264.5 -230.5t-134.5 -319.5z" />
<glyph unicode="R" horiz-adv-x="1284" d="M88 0l252 1434h109h382q83 0 155 -36t119.5 -95.5t68.5 -140.5q12 -47 12 -96q0 -35 -6 -71q-26 -150 -138 -259.5t-264 -139.5l422 -596h-129l-414 588h-358l-102 -588h-109zM317 690h383q132 0 241 94t132 226q6 33 6 63q0 93 -58 164q-77 94 -208 94h-383z" />
<glyph unicode="S" horiz-adv-x="1128" d="M70 397h108q-6 -33 -6 -63q0 -104 70 -169q90 -83 268 -83q150 0 259.5 75.5t131.5 196.5q5 26 5 50q0 35 -10 64q-18 50 -69 88t-94.5 59.5t-124.5 54.5q-161 65 -225 105q-153 96 -160 246v16q0 33 6 69q30 162 170 256t322 94q83 0 157.5 -27.5t128 -76t77.5 -124.5 q14 -45 14 -95q0 -33 -6 -68h-109q5 30 5 56q0 91 -60 152q-78 79 -223 79q-140 0 -242.5 -72.5t-122.5 -187.5q-4 -23 -4 -45q0 -28 6 -52q12 -44 36 -74t67 -57t84 -46t98 -42q4 -1 6 -2q165 -69 231 -113q152 -100 152 -253v-12q-1 -27 -6 -56q-20 -113 -97.5 -196.5 t-186.5 -125t-234 -41.5q-136 0 -239 48t-155 145q-36 66 -36 148q0 38 8 79z" />
<glyph unicode="T" horiz-adv-x="1024" d="M193 1331l16 103h520h410l-19 -103h-409l-234 -1331h-110l235 1331h-409z" />
<glyph unicode="U" horiz-adv-x="1275" d="M141 414l178 1020h109l-178 -1020q-7 -41 -8 -77q0 -105 64 -169q84 -86 257 -86q171 0 287 88t143 244l178 1020h109l-178 -1020q-26 -147 -107 -247t-194.5 -145t-255.5 -45q-96 0 -178 30.5t-138.5 85.5t-80.5 139q-14 48 -15 101q0 39 8 81z" />
<glyph unicode="V" horiz-adv-x="1239" d="M188 1434h111l248 -1301l704 1301h121l-786 -1434h-115z" />
<glyph unicode="W" horiz-adv-x="1761" d="M197 1434h100l188 -1321l418 850l-65 471h102l186 -1321l652 1321h110l-704 -1434h-144l-110 784l-389 -784h-144z" />
<glyph unicode="X" horiz-adv-x="1161" d="M-43 0l604 743l-325 691h110l285 -605l489 605h127l-569 -703l344 -731h-111l-303 645l-524 -645h-127z" />
<glyph unicode="Y" horiz-adv-x="1167" d="M188 1434h113l320 -664l553 664h129l-637 -764l-119 -670h-109l119 672z" />
<glyph unicode="Z" horiz-adv-x="1058" d="M-2 0l18 102l973 1229h-735l16 103h860l-16 -103l-973 -1229h777l-19 -102h-901z" />
<glyph unicode="[" horiz-adv-x="532" d="M2 -205l326 1843h104h293l-18 -100h-293l-289 -1642h293l-19 -101h-376h-21z" />
<glyph unicode="\" horiz-adv-x="1079" d="M287 1638h82l493 -1843h-80z" />
<glyph unicode="]" horiz-adv-x="532" d="M-121 -205l21 101h290l289 1642h-291l17 100h397l-326 -1843h-104h-293z" />
<glyph unicode="^" horiz-adv-x="1028" d="M156 819l467 615h102l254 -615h-113l-202 498l-379 -498h-129z" />
<glyph unicode="_" horiz-adv-x="1038" d="M-57 -272l18 98h873l-17 -98h-874z" />
<glyph unicode="`" horiz-adv-x="370" d="M203 1427l143 -260h98l-118 260h-123z" />
<glyph unicode="a" horiz-adv-x="1021" d="M55 311q19 102 85.5 174.5t153.5 105t185 32.5q103 0 183 -39.5t118 -112.5l37 201q6 36 6 67q-1 89 -49 141q-66 68 -186 68q-119 0 -207 -59.5t-107 -171.5h-104q26 147 145.5 238.5t288.5 91.5q162 1 254 -103q69 -78 70 -192q0 -38 -8 -80l-117 -672h-105l21 115 q-115 -138 -344 -138q-151 1 -249 91q-77 71 -76 181q0 30 5 62zM160 303q-4 -22 -3 -42q1 -73 51 -123q66 -64 198 -64t229 60t117 165q4 21 4 40q0 79 -64 127q-80 60 -207 60q-135 0 -221 -61t-104 -162z" />
<glyph unicode="b" horiz-adv-x="1320" d="M68 0l251 1434h103l-109 -625q83 112 205.5 175t269.5 63q105 0 196 -43.5t152 -115.5q62 -73 88 -175q15 -59 14 -122q0 -45 -7 -91q-40 -227 -212.5 -375t-404.5 -148q-142 0 -248 75.5t-151 201.5l-45 -254h-102zM262 518q-7 -41 -7 -79q0 -75 27 -143 q41 -102 132 -161t211 -59q185 0 326.5 125.5t174.5 310.5q7 43 7 82q-1 130 -81 228q-106 126 -288.5 126t-326 -123t-175.5 -307z" />
<glyph unicode="c" horiz-adv-x="1179" d="M92 528q40 226 216.5 372.5t406.5 146.5q173 0 292 -93.5t138 -242.5h-107q-24 108 -111.5 172.5t-221.5 64.5q-187 0 -331.5 -123t-176.5 -307q-8 -44 -8 -86q0 -73 24 -137q37 -101 126 -160t212 -59q132 0 244.5 65t173.5 172h108q-70 -156 -216.5 -246t-328.5 -90 q-148 0 -258 75q-112 74 -160 200q-32 82 -31 175q0 49 9 101z" />
<glyph unicode="d" horiz-adv-x="1320" d="M92 535q28 160 119.5 278.5t213.5 176t259 57.5q144 0 258.5 -73.5t163.5 -203.5l117 664h104l-252 -1434h-104l37 205q-84 -108 -204.5 -168t-266.5 -60q-106 0 -198 45t-153 120q-60 74 -86 178q-15 60 -16 124q0 45 8 91zM197 526q-7 -41 -7 -81q0 -75 26 -143 q40 -104 132 -165t213 -61q172 0 309.5 106t180.5 273l14 84q2 25 2 49q0 148 -96 246q-112 114 -281 114q-113 0 -216 -48.5t-178.5 -146.5t-98.5 -227z" />
<glyph unicode="e" horiz-adv-x="1175" d="M92 526q40 229 206 375t396 146q145 0 249 -76.5t146 -198.5q26 -77 27 -161q0 -50 -10 -103q0 -2 -12 -49h-103h-803q-1 -19 -1 -38q1 -145 85 -239q96 -106 265 -106q124 0 223.5 54.5t150.5 143.5h117q-68 -135 -202.5 -216t-307.5 -81q-145 0 -252.5 72.5 t-153.5 198.5q-29 80 -30 170q0 52 10 108zM203 559h807q3 28 3 54q0 143 -79 231q-93 104 -250 104q-178 0 -308 -107t-173 -282z" />
<glyph unicode="f" horiz-adv-x="628" d="M115 924l16 100h178l10 55q34 197 155 295q106 84 269 84q25 0 52 -2l-19 -98q-22 2 -42 2q-260 0 -312 -281l-8 -55h303l-17 -100h-305l-164 -924h-102l162 924h-176z" />
<glyph unicode="g" horiz-adv-x="1331" d="M74 -59h104q-2 -14 -2 -28q0 -86 80 -161q92 -86 258 -86q194 0 318 103t155 280l29 158q-81 -109 -202.5 -169.5t-268.5 -60.5q-142 0 -254 75.5t-165 205.5q-35 86 -35 181q0 47 9 96q27 160 118.5 278.5t214 176t259.5 57.5q143 0 258 -74.5t164 -204.5l45 256h105 l-172 -975q-41 -235 -202 -358t-392 -123q-123 0 -223.5 49t-155.5 135q-47 74 -47 158q0 15 2 31zM203 526q-7 -42 -7 -81q0 -135 82 -237q106 -132 289 -132q184 0 326 119t174 301q8 44 8 85q0 53 -13 101q-23 87 -76 144t-128.5 89.5t-161.5 32.5q-113 0 -215.5 -48.5 t-178 -146t-99.5 -227.5z" />
<glyph unicode="h" horiz-adv-x="1073" d="M68 0l251 1434h103l-98 -570q138 183 364 183q68 0 126 -26t98 -73q42 -47 58 -118q9 -37 8 -78q0 -37 -7 -76l-119 -676h-104l120 676q6 36 6 68q0 80 -42 132q-58 72 -175 72q-60 0 -119 -21.5t-112 -62.5t-93 -110.5t-57 -157.5l-106 -596h-102z" />
<glyph unicode="i" horiz-adv-x="417" d="M68 0l180 1024h102l-180 -1024h-102zM285 1229l34 205h103l-35 -205h-102z" />
<glyph unicode="j" horiz-adv-x="456" d="M-207 -432l17 98q22 -2 43 -2q89 0 144 43q67 53 89 176l201 1141h102l-201 -1141q-54 -318 -336 -318q-28 0 -59 3zM324 1229l34 205h103l-35 -205h-102z" />
<glyph unicode="k" horiz-adv-x="989" d="M68 0l251 1434h103l-152 -869l598 459h146l-641 -494l479 -530h-127l-465 514l-90 -514h-102z" />
<glyph unicode="l" horiz-adv-x="417" d="M68 0l260 1475h102l-147 -848l-113 -627h-102z" />
<glyph unicode="m" horiz-adv-x="1591" d="M68 0l180 1024h102l-22 -133q126 156 315 156q86 0 155 -48.5t93 -138.5q133 187 346 187q59 0 111 -22t90 -64t54 -111q8 -35 9 -74q0 -38 -8 -80l-123 -696h-102l121 696q7 38 7 71q0 74 -36 118q-50 63 -150 63q-47 0 -95 -17.5t-95 -53t-84 -99.5t-55 -147l-111 -631 h-102l120 696q7 38 7 71q0 74 -35 118q-50 63 -150 63q-47 0 -95 -17.5t-95 -52.5t-83.5 -97.5t-53.5 -143.5l-113 -637h-102z" />
<glyph unicode="n" horiz-adv-x="1073" d="M68 0l180 1024h102l-26 -158q137 181 360 181q146 -1 232 -101q63 -74 63 -184q0 -40 -8 -86l-119 -676h-104l120 676q6 37 6 70q0 82 -42 132q-58 70 -175 70q-60 0 -117.5 -20.5t-110.5 -61.5t-93.5 -110t-59.5 -158l-106 -598h-102z" />
<glyph unicode="o" horiz-adv-x="1253" d="M90 522q21 121 84 222t150 166.5t190.5 101t208.5 35.5q103 0 192.5 -39.5t152 -108.5t89.5 -173q15 -58 16 -121q0 -49 -10 -101q-28 -164 -125.5 -286t-226.5 -181.5t-270 -59.5q-104 0 -195 39t-155.5 108t-92.5 173q-16 60 -17 125q0 49 9 100zM195 512 q-8 -44 -8 -85q0 -51 12 -97q21 -84 71.5 -138.5t123 -85t157.5 -30.5q115 0 221.5 51.5t185.5 153.5t103 235q8 43 8 84q-1 50 -13 96q-22 82 -71.5 136.5t-122 85t-157.5 30.5q-114 -1 -220.5 -52t-186 -152t-103.5 -232z" />
<glyph unicode="p" horiz-adv-x="1320" d="M-4 -410l252 1434h102l-37 -215q83 112 205.5 175t269.5 63q105 0 196 -43.5t152 -116t88 -174.5q15 -59 15 -122q0 -45 -8 -91q-40 -227 -212.5 -375t-404.5 -148q-142 0 -247 75t-152 202l-117 -664h-102zM262 518q-7 -41 -7 -79q0 -76 27 -143q41 -102 132 -161 t211 -59q185 0 326.5 125.5t174.5 310.5q7 43 7 82q0 130 -81 228q-105 126 -288 126t-326.5 -123t-175.5 -307z" />
<glyph unicode="q" horiz-adv-x="1323" d="M92 535q28 160 119.5 278.5t213.5 176t259 57.5q145 0 260 -74.5t164 -204.5l45 256h102l-251 -1434h-103l109 617q-83 -109 -204.5 -169.5t-268.5 -60.5q-106 0 -198 45t-152.5 120t-86.5 178q-16 61 -16 124q0 45 8 91zM197 526q-7 -41 -7 -81q0 -75 26 -143 q41 -104 132.5 -165t212.5 -61q184 0 325 118t173 300l2 4q7 42 7 82q0 54 -13 104q-23 85 -76 142t-128 89.5t-161 32.5q-113 0 -216 -48.5t-178.5 -146.5t-98.5 -227z" />
<glyph unicode="r" horiz-adv-x="651" d="M68 0l180 1024h102l-31 -174q134 189 353 189q12 0 24 -1l-18 -98q-68 0 -132 -21.5t-120 -65t-97.5 -116.5t-58.5 -168l-100 -569h-102z" />
<glyph unicode="s" horiz-adv-x="950" d="M57 283h105q-4 -23 -4 -43q0 -72 51 -112q66 -52 186 -52t204 47t101 137q3 16 3 30q-1 33 -15 59q-20 38 -60.5 59.5t-93.5 41t-109.5 34t-108.5 38.5t-91 54q-39 28 -57 80q-11 31 -11 68q0 25 5 52q23 124 131.5 197.5t265.5 73.5q157 1 245 -85q68 -66 67 -163 q0 -28 -5 -58h-104q4 24 4 45q0 69 -47 109q-62 53 -168 53q-108 0 -188.5 -46.5t-96.5 -135.5q-3 -15 -3 -29q1 -27 11 -51q16 -34 48.5 -55.5t76.5 -38.5t94 -31.5t99 -30.5t92.5 -39t74.5 -53.5t44 -78.5q7 -26 7 -56q0 -25 -5 -53q-22 -123 -136 -198t-282 -75 q-171 0 -263 85q-73 67 -72 165q0 27 5 56z" />
<glyph unicode="t" horiz-adv-x="649" d="M121 924l16 100h225l58 328h104l-57 -328h223l-16 -100h-225l-162 -924h-105l164 924h-225z" />
<glyph unicode="u" horiz-adv-x="1073" d="M102 348l119 676h103l-117 -676q-7 -38 -7 -71q0 -79 40 -129q58 -72 174 -72q83 0 159 36.5t138 118.5t86 199l104 594h105l-181 -1024h-104l29 158q-131 -181 -355 -181q-149 -1 -237 101q-65 75 -64 187q0 39 8 83z" />
<glyph unicode="v" horiz-adv-x="976" d="M117 1024h104l191 -915l512 915h116l-579 -1024h-111h-14z" />
<glyph unicode="w" horiz-adv-x="1386" d="M117 1024h106l152 -903l295 559l-62 344h105l151 -901l469 901h115l-543 -1024h-104h-8l-97 530l-282 -530h-105h-8z" />
<glyph unicode="x" horiz-adv-x="921" d="M-43 0l451 535l-246 489h108l205 -410l344 410h121l-420 -498l264 -526h-108l-223 444l-375 -444h-121z" />
<glyph unicode="y" horiz-adv-x="962" d="M117 1024h104l211 -881l479 881h115l-778 -1434h-113l225 418z" />
<glyph unicode="z" horiz-adv-x="935" d="M6 0l12 68l746 856h-576l19 100h723l-12 -68l-746 -856h614l-16 -100h-764z" />
<glyph unicode="{" horiz-adv-x="722" d="M137 670l19 98q117 0 177 43t81 162l67 383q30 173 129.5 245.5t266.5 57.5l-19 -100q-122 14 -186.5 -33t-85.5 -170l-68 -383q-21 -119 -71.5 -180t-137.5 -82q156 -42 119 -246l-68 -383q-23 -123 26 -170t175 -35l-16 -98q-168 -15 -241.5 63.5t-45.5 239.5l66 383 q22 119 -23.5 162t-163.5 43z" />
<glyph unicode="|" horiz-adv-x="458" d="M16 -410l332 1885h103l-332 -1885h-103z" />
<glyph unicode="}" horiz-adv-x="722" d="M-82 -221l19 100q122 -14 186.5 33t85.5 170l67 383q21 119 71.5 180t137.5 82q-155 42 -118 246l67 383q23 123 -26 170t-175 35l17 98q168 15 241.5 -63.5t45.5 -239.5l-66 -383q-22 -119 23 -162t163 -43l-18 -98q-117 0 -177 -43t-81 -162l-68 -383 q-30 -173 -129 -245.5t-266 -57.5z" />
<glyph unicode="~" horiz-adv-x="1202" d="M152 637q30 71 78 122t112.5 77.5t149.5 8.5t176 -85q249 -183 368 82l86 -45q-24 -56 -58 -100.5t-82 -74.5t-103.5 -38t-125.5 14t-145 76q-253 184 -368 -82z" />
<glyph unicode="&#xa2;" horiz-adv-x="1179" d="M129 733q40 226 216 372t407 146q50 0 108 -10l96 193h86l-108 -215q102 -38 167.5 -118.5t78.5 -185.5h-107q-15 73 -62.5 128.5t-121.5 84.5l-416 -833q61 -14 113 -14q132 0 245.5 65t172.5 172h110q-70 -156 -216.5 -246t-328.5 -90q-64 0 -143 21l-102 -203h-84 l114 231q-129 67 -191.5 202.5t-33.5 299.5zM231 723q-22 -131 24 -238t146 -161l412 823q-35 6 -72 6q-187 0 -331.5 -123t-178.5 -307z" />
<glyph unicode="&#xa3;" horiz-adv-x="1187" d="M-14 0l18 104h203l86 482h-164l16 98h164l64 360q34 195 169 303.5t314 108.5q77 0 145.5 -27t119.5 -77t73.5 -130.5t5.5 -177.5l-10 -47h-109l9 47q26 147 -43.5 227.5t-206.5 80.5q-132 0 -232.5 -81.5t-124.5 -226.5l-63 -360h491l-18 -98h-492l-84 -482h773 l-19 -104h-1085z" />
<glyph unicode="&#xa5;" horiz-adv-x="1167" d="M125 365l16 90h377l29 157h-377l14 93h357l-353 729h113l320 -664l553 664h129l-609 -729h359l-17 -93h-381l-28 -157h381l-15 -90h-381l-65 -365h-109l64 365h-377z" />
<glyph unicode="&#xa8;" horiz-adv-x="600" d="M160 1188l26 149h123l-26 -149h-123zM555 1188l27 149h123l-27 -149h-123z" />
<glyph unicode="&#xa9;" horiz-adv-x="1675" d="M133 727q35 202 163 369.5t315.5 263.5t392.5 96q149 0 276 -60t209 -160.5t117 -239t8 -289.5q-36 -202 -164 -369.5t-315 -264t-392 -96.5q-149 0 -276 60t-209.5 161t-117 239.5t-7.5 289.5zM188 717q-33 -188 30.5 -347t205 -251t328.5 -92q188 0 362 92t292.5 250.5 t152.5 347.5q33 188 -30.5 347t-205 251t-328.5 92q-141 0 -278 -54.5t-244.5 -146.5t-184 -220t-100.5 -269zM483 727q29 165 160.5 274t304.5 109q131 0 222.5 -80t99.5 -199h-107q-9 85 -74 134t-157 49q-130 0 -227.5 -87.5t-118.5 -209.5q-22 -122 44.5 -209.5 t196.5 -87.5q92 0 173.5 48.5t121.5 133.5h107q-52 -125 -165.5 -201.5t-252.5 -76.5q-81 0 -149 32.5t-112 86.5t-62.5 128.5t-4.5 155.5z" />
<glyph unicode="&#xab;" horiz-adv-x="968" d="M184 633l283 354h135l-289 -362l154 -346h-125zM473 633l281 354h135l-287 -362l154 -346h-127z" />
<glyph unicode="&#xad;" horiz-adv-x="1091" d="M190 584l17 98h737l-16 -98h-738z" />
<glyph unicode="&#xae;" horiz-adv-x="1675" d="M133 727q35 202 163 369.5t315.5 263.5t392.5 96q149 0 276 -60t209 -160.5t117 -239t8 -289.5q-36 -202 -164 -369.5t-315 -264t-392 -96.5q-149 0 -276 60t-209.5 161t-117 239.5t-7.5 289.5zM188 717q-33 -188 30.5 -347t205 -251t328.5 -92q188 0 362 92t292.5 250.5 t152.5 347.5q33 188 -30.5 347t-205 251t-328.5 92q-141 0 -278 -54.5t-244.5 -146.5t-184 -220t-100.5 -269zM588 338l133 758h98h129q129 0 191.5 -73t46.5 -171q-28 -167 -193 -213l181 -301h-105l-174 285h-31h-129l-49 -285h-98zM752 717h135q87 0 138 37.5t62 103.5 q12 65 -26.5 104t-122.5 39h-135z" />
<glyph unicode="&#xb4;" horiz-adv-x="366" d="M156 1167h102l229 260h-127z" />
<glyph unicode="&#xb8;" horiz-adv-x="481" d="M-125 -432l14 84q148 -15 230.5 7t91.5 73q8 44 -37.5 67.5t-134.5 20.5l31 180h94l-21 -115q78 -9 124 -53t34 -108q-30 -190 -426 -156z" />
<glyph unicode="&#xbb;" horiz-adv-x="970" d="M123 279l287 362l-154 346h127l158 -354l-283 -354h-135zM412 279l286 362l-153 346h127l155 -354l-280 -354h-135z" />
<glyph unicode="&#x2c6;" horiz-adv-x="645" d="M156 1167l266 260h119h2l176 -260h-111l-131 195l-198 -195h-123z" />
<glyph unicode="&#x2da;" horiz-adv-x="501" d="M186 1335q15 86 82 140.5t162 54.5q89 0 139.5 -59t36.5 -144q-15 -86 -82 -140t-164 -54q-89 0 -139 58.5t-35 143.5zM274 1331q-9 -52 18 -84.5t83 -32.5q57 0 96.5 32.5t48.5 84.5q8 52 -19.5 84.5t-84.5 32.5q-56 0 -95 -32.5t-47 -84.5z" />
<glyph unicode="&#x2dc;" horiz-adv-x="638" d="M162 1194q13 86 46.5 140.5t76.5 71t92 1.5t94 -61q50 -51 87 -64.5t65.5 15.5t42.5 106h90q-19 -112 -70 -168.5t-115 -50.5t-125 67q-73 79 -123 68t-71 -125h-90z" />
<glyph unicode="&#x401;" horiz-adv-x="1064" d="M88 0l252 1434h109h679l-18 -103h-680l-98 -557h629l-19 -102h-627l-100 -570h690l-18 -102h-752h-47zM500 1597l26 150h123l-26 -150h-123zM895 1597l27 150h122l-26 -150h-123z" />
<glyph unicode="&#x402;" horiz-adv-x="1355" d="M193 1331l16 103h500h477l-17 -103h-479l-80 -448q172 82 326 82q74 0 136.5 -24t107.5 -69.5t64 -119t3 -164.5l-51 -285q-30 -166 -131 -249t-264 -68l16 100q118 -13 183 39.5t87 177.5l50 285q25 138 -35 208t-182 70q-142 0 -328 -92l-135 -774h-111l236 1331h-389z " />
<glyph unicode="&#x403;" horiz-adv-x="1009" d="M88 0l252 1434h784l-16 -103h-678l-233 -1331h-109zM668 1575l204 260h127l-229 -260h-102z" />
<glyph unicode="&#x404;" horiz-adv-x="1570" d="M133 729q27 152 103.5 286t187.5 231.5t257 153.5t306 56q232 0 394.5 -128.5t195.5 -330.5h-115q-30 162 -161 258.5t-328 96.5q-130 0 -250 -45t-212.5 -123.5t-159.5 -185.5t-97 -230h809l-19 -102h-808q-18 -164 37.5 -296.5t179 -210t295.5 -77.5q200 0 365 96 t251 258h119q-104 -206 -305 -332.5t-449 -126.5q-153 0 -279 60t-203.5 162t-109 240t-4.5 290z" />
<glyph unicode="&#x405;" horiz-adv-x="1128" d="M70 397h108q-26 -149 64.5 -232t267.5 -83q150 0 259.5 75.5t131.5 196.5q12 64 -5.5 114t-68.5 88t-94.5 59.5t-124.5 54.5q-161 65 -225 105q-153 96 -160 246q-2 40 6 85q30 162 170 256t322 94q83 0 157.5 -27.5t128 -76t77.5 -124t8 -163.5h-109q23 129 -54.5 208 t-223.5 79q-140 0 -242.5 -72.5t-122.5 -187.5q-9 -53 2.5 -97t35.5 -74t67 -57t84 -46t98 -42q4 -1 6 -2q165 -69 231 -113q158 -104 152 -265q-1 -27 -6 -56q-20 -113 -97.5 -196.5t-186.5 -125t-234 -41.5q-136 0 -239 48t-155 145t-28 227z" />
<glyph unicode="&#x406;" horiz-adv-x="464" d="M88 0l252 1434h109l-252 -1434h-109z" />
<glyph unicode="&#x407;" horiz-adv-x="464" d="M88 0l252 1434h109l-252 -1434h-109zM164 1597l26 150h123l-26 -150h-123zM559 1597l27 150h123l-27 -150h-123z" />
<glyph unicode="&#x408;" horiz-adv-x="1093" d="M35 393l2 17h110l-4 -17q-27 -149 50 -230t227 -81q145 0 251.5 81t133.5 230l182 1041h111l-183 -1043q-24 -139 -103 -234.5t-182.5 -137.5t-226.5 -42q-84 0 -157.5 27.5t-127.5 78t-77.5 131.5t-5.5 179z" />
<glyph unicode="&#x409;" horiz-adv-x="1957" d="M-53 -2l18 96q72 -8 130 13.5t110 79t92 162.5t68 259l143 826h756l-111 -629h344q113 0 201 -54.5t129 -150.5t20 -209q-20 -114 -91.5 -204t-177 -138.5t-224.5 -48.5h-404h-47l236 1331h-539l-129 -725q-32 -180 -80 -302.5t-115 -192t-146.5 -96t-182.5 -17.5z M1030 102h342q131 0 237.5 85.5t129.5 215.5t-53 214.5t-207 84.5h-342z" />
<glyph unicode="&#x40a;" horiz-adv-x="1935" d="M88 0l252 1434h109l-111 -629h682l110 629h111l-111 -629h343q113 0 201 -55t129.5 -150.5t21.5 -208.5q-30 -172 -171.5 -281.5t-324.5 -109.5h-401h-49l125 702h-685l-122 -702h-109zM1006 102h342q132 0 237.5 85t128.5 216q23 130 -53 214.5t-207 84.5h-342z" />
<glyph unicode="&#x40b;" horiz-adv-x="1370" d="M193 1331l16 103h500h477l-17 -103h-479l-80 -448q172 82 326 82q74 0 136.5 -24t107.5 -69.5t64 -119t3 -164.5l-104 -588h-109l103 588q25 138 -35 208t-182 70q-142 0 -328 -92l-135 -774h-111l236 1331h-389z" />
<glyph unicode="&#x40c;" horiz-adv-x="1169" d="M88 0l252 1434h109l-117 -668l815 668h147l-850 -705l615 -729h-131l-606 715l-125 -715h-109zM688 1575l205 260h127l-229 -260h-103z" />
<glyph unicode="&#x40e;" horiz-adv-x="1159" d="M143 0l17 96q114 -9 200.5 46t163.5 184l37 63l-332 1045h107l295 -930l551 930h112l-659 -1119q-104 -179 -221.5 -252.5t-270.5 -62.5zM526 1610l17 90h518l-14 -90h-521z" />
<glyph unicode="&#x40f;" horiz-adv-x="1296" d="M88 0l252 1434h109l-234 -1332h723l233 1332h111l-252 -1434h-110h-308l-51 -295h-108l51 295h-365h-51z" />
<glyph unicode="&#x410;" horiz-adv-x="1288" d="M-59 0l809 1434h114l303 -1434h-110l-76 365h-717l-205 -365h-118zM322 467h639l-170 833z" />
<glyph unicode="&#x411;" horiz-adv-x="1200" d="M88 0l252 1434h109h716l-16 -103h-719l-84 -485h410l-19 -103h-409l-113 -641h410q131 0 240 94.5t132 227.5q26 138 -52 234.5t-208 84.5l19 103q110 0 198 -60.5t129.5 -162t20.5 -215.5q-31 -174 -173.5 -291t-324.5 -117h-471h-47z" />
<glyph unicode="&#x412;" horiz-adv-x="1398" d="M88 0l252 1434h109h421q116 0 198 -49.5t113.5 -126t14.5 -162.5q-20 -107 -102 -195q126 -56 186.5 -175.5t34.5 -270.5q-17 -92 -62 -174t-112.5 -145t-160.5 -99.5t-198 -36.5h-673h-21zM215 102h571q157 0 276 107t146 262q28 156 -52.5 262.5t-237.5 106.5h-574z M362 942h533q55 0 94 -8q79 64 98 166q18 98 -38 164.5t-168 66.5h-451z" />
<glyph unicode="&#x413;" horiz-adv-x="1009" d="M88 0l252 1434h784l-16 -103h-678l-233 -1331h-109z" />
<glyph unicode="&#x414;" horiz-adv-x="1345" d="M-104 -295l69 397h115q176 169 237 514l144 818h817l-234 -1332h150l-70 -397h-108l51 295h-1010l-51 -295h-110zM215 102h721l215 1229h-598l-127 -717q-61 -337 -211 -512z" />
<glyph unicode="&#x415;" horiz-adv-x="1064" d="M88 0l252 1434h109h679l-18 -103h-680l-98 -557h629l-19 -102h-627l-100 -570h690l-18 -102h-752h-47z" />
<glyph unicode="&#x416;" horiz-adv-x="1712" d="M-49 0l784 745l-510 689h117l504 -672l119 672h108l-117 -670l725 670h136l-760 -705l524 -729h-117l-518 711l-125 -711h-108l125 711l-750 -711h-137z" />
<glyph unicode="&#x417;" horiz-adv-x="1085" d="M35 440h108q-27 -158 60 -259t266 -101q175 0 297 106t149 265q28 154 -54.5 255t-242.5 101h-88l17 96h88q67 0 125 -18q66 45 104.5 105t48.5 120q21 109 -39 176.5t-192 67.5q-130 0 -217.5 -69.5t-108.5 -178.5h-108q27 152 147 251t303 99q169 0 260 -103t64 -251 q-23 -144 -164 -262q96 -62 143.5 -168.5t24.5 -229.5q-17 -97 -64 -181.5t-118 -147.5t-169.5 -99.5t-211.5 -36.5q-225 0 -343.5 133t-84.5 330z" />
<glyph unicode="&#x418;" horiz-adv-x="1290" d="M88 0l252 1434h109l-213 -1211l942 1211h96l-252 -1434h-109l213 1210l-942 -1210h-96z" />
<glyph unicode="&#x419;" horiz-adv-x="1290" d="M88 0l252 1434h109l-213 -1211l942 1211h96l-252 -1434h-109l213 1210l-942 -1210h-96zM578 1612l16 90h518l-14 -90h-520z" />
<glyph unicode="&#x41a;" horiz-adv-x="1169" d="M88 0l252 1434h109l-117 -668l815 668h147l-850 -705l615 -729h-131l-606 715l-125 -715h-109z" />
<glyph unicode="&#x41b;" horiz-adv-x="1320" d="M-53 -2l18 96q72 -8 130 13.5t110 79t92 162.5t68 259l143 826h797l-252 -1434h-109l236 1331h-580l-129 -725q-32 -182 -80.5 -305.5t-116 -192t-146.5 -94t-181 -16.5z" />
<glyph unicode="&#x41c;" horiz-adv-x="1652" d="M88 0l252 1434h109h18l326 -1055l696 1055h147l-252 -1434h-108l219 1255l-661 -1001h-107l-309 1001l-221 -1255h-109z" />
<glyph unicode="&#x41d;" horiz-adv-x="1296" d="M88 0l252 1434h109l-113 -646h723l112 646h111l-252 -1434h-110l120 686h-723l-120 -686h-109z" />
<glyph unicode="&#x41e;" horiz-adv-x="1677" d="M133 733q36 202 160.5 367.5t310 260.5t393.5 95q202 0 357 -104.5t225 -280t35 -377.5q-37 -202 -161.5 -366.5t-310 -257.5t-394.5 -93q-202 0 -356.5 103t-224 277t-34.5 376zM244 717q-31 -174 26 -319.5t188 -230.5t308 -85q179 0 338 83.5t264 227.5t135 318 q30 173 -27 320t-188.5 234t-308.5 87t-336 -85t-264.5 -230.5t-134.5 -319.5z" />
<glyph unicode="&#x41f;" horiz-adv-x="1296" d="M88 0l252 1434h109h833l-252 -1434h-110l235 1331h-725l-233 -1331h-109z" />
<glyph unicode="&#x420;" horiz-adv-x="1181" d="M88 0l252 1434h109h380q66 0 126 -23.5t105.5 -64t77.5 -96t41.5 -120t-1.5 -135.5q-29 -174 -172 -290.5t-326 -116.5h-381l-102 -588h-109zM317 690h381q133 0 241.5 93.5t131.5 226.5q25 133 -51 227t-207 94h-383z" />
<glyph unicode="&#x421;" horiz-adv-x="1574" d="M123.5 533.5q-10.5 95.5 9.5 197.5q36 203 157.5 368.5t307 261t397.5 95.5q226 0 394.5 -129t199.5 -330h-116q-33 159 -164 257t-322 98q-140 0 -268.5 -50t-225.5 -135.5t-163.5 -202t-89.5 -247.5t4 -247.5t94.5 -202t178.5 -135.5t249 -50q185 0 351.5 98t256.5 256 h119q-105 -206 -307 -332.5t-443 -126.5q-105 0 -198.5 27.5t-165.5 77.5t-128.5 119t-86.5 153t-40.5 179.5z" />
<glyph unicode="&#x422;" horiz-adv-x="1024" d="M193 1331l16 103h520h410l-19 -103h-409l-234 -1331h-110l235 1331h-409z" />
<glyph unicode="&#x423;" horiz-adv-x="1159" d="M143 0l17 96q114 -9 200.5 46t163.5 184l37 63l-332 1045h107l295 -930l551 930h112l-659 -1119q-104 -179 -221.5 -252.5t-270.5 -62.5z" />
<glyph unicode="&#x424;" horiz-adv-x="1650" d="M106 727q30 170 142.5 292.5t279.5 185t375 69.5l29 160h108l-26 -162q147 -7 266.5 -47t203 -109.5t119.5 -174.5t13 -234q-30 -170 -142.5 -292.5t-280 -185t-376.5 -69.5l-29 -160h-108l29 162q-148 7 -268 47.5t-203 110t-118.5 174.5t-13.5 233zM215 717 q-37 -211 101.5 -328.5t408.5 -128.5l162 914q-275 -11 -455 -128.5t-217 -328.5zM836 260q180 7 320.5 59.5t233 154t117.5 243.5q37 211 -101.5 328.5t-410.5 128.5z" />
<glyph unicode="&#x425;" horiz-adv-x="1161" d="M-43 0l604 743l-325 691h110l285 -605l489 605h127l-569 -703l344 -731h-111l-303 645l-524 -645h-127z" />
<glyph unicode="&#x426;" horiz-adv-x="1345" d="M88 0l252 1434h109l-234 -1332h723l233 1332h111l-233 -1332h149l-70 -397h-108l51 295h-983z" />
<glyph unicode="&#x427;" horiz-adv-x="1249" d="M217 928l88 506h109l-88 -506q-24 -137 51 -218t237 -81q189 0 383 82l127 723h109l-252 -1434h-109l105 600q-183 -74 -381 -74q-202 0 -306 114.5t-73 287.5z" />
<glyph unicode="&#x428;" horiz-adv-x="1878" d="M88 0l252 1434h109l-234 -1332h598l234 1332h108l-233 -1332h598l233 1332h109l-252 -1434h-1522z" />
<glyph unicode="&#x429;" horiz-adv-x="1925" d="M88 0l252 1434h109l-234 -1332h598l234 1332h108l-233 -1332h598l233 1332h109l-234 -1332h150l-70 -397h-109l52 295h-1563z" />
<glyph unicode="&#x42a;" horiz-adv-x="1402" d="M145 1331l17 103h506l-105 -588h383q110 0 198 -60.5t129.5 -162t20.5 -215.5q-19 -114 -90.5 -207.5t-179 -147t-227.5 -53.5h-492l236 1331h-396zM434 102h381q133 0 241.5 94.5t131.5 227.5q25 132 -51 225.5t-207 93.5h-385z" />
<glyph unicode="&#x42b;" horiz-adv-x="1542" d="M88 0l252 1434h109l-103 -588h383q110 0 197.5 -60.5t129 -162t21.5 -215.5q-31 -174 -173.5 -291t-323.5 -117h-492zM215 102h383q131 0 240.5 94.5t132.5 227.5q25 132 -52 225.5t-208 93.5h-383zM1165 0l252 1434h111l-252 -1434h-111z" />
<glyph unicode="&#x42c;" horiz-adv-x="1183" d="M88 0l252 1434h109l-103 -588h383q110 0 197.5 -60.5t129 -162t21.5 -215.5q-31 -174 -173.5 -291t-323.5 -117h-445h-47zM215 102h383q131 0 240.5 94.5t132.5 227.5q25 132 -52 225.5t-208 93.5h-383z" />
<glyph unicode="&#x42d;" horiz-adv-x="1570" d="M63 436h117q35 -161 164.5 -257.5t327.5 -96.5q129 0 248 45t212 123.5t160 186t97 229.5h-809l18 102h809q18 164 -37.5 296.5t-179 210t-295.5 77.5q-195 0 -360 -97.5t-254 -257.5h-119q106 208 304.5 333.5t446.5 125.5q205 0 355 -102t213.5 -274t27.5 -375 q-28 -153 -104 -286.5t-186.5 -231.5t-257 -154t-308.5 -56q-236 0 -396.5 128t-193.5 331z" />
<glyph unicode="&#x42e;" horiz-adv-x="2146" d="M88 0l252 1434h109l-113 -646h287q34 141 114.5 264.5t191 212.5t250 140t287.5 51q203 0 358 -104.5t224.5 -280t34.5 -377.5q-37 -202 -161.5 -366.5t-310 -257.5t-394.5 -93q-145 0 -268.5 56.5t-204.5 152t-119 226t-21 274.5h-287l-120 -686h-109zM713 717 q-31 -174 26.5 -319.5t188.5 -230.5t307 -85q134 0 260 49t223 133t165 200.5t91 246.5q29 173 -28.5 320t-189 234t-308.5 87q-176 0 -335 -85t-264.5 -230.5t-135.5 -319.5z" />
<glyph unicode="&#x42f;" horiz-adv-x="1263" d="M-35 0l621 588q-164 15 -260.5 143.5t-67.5 294.5q33 176 174 292t330 116h485l-252 -1434h-108l102 588h-262l-618 -588h-144zM367 1016q-24 -134 54.5 -230t217.5 -96h369l112 641h-377q-134 0 -242.5 -91t-133.5 -224z" />
<glyph unicode="&#x430;" horiz-adv-x="1021" d="M55 311q19 102 85.5 174.5t153.5 105t185 32.5q103 0 183 -39.5t118 -112.5l37 201q23 139 -42.5 207.5t-186.5 68.5q-119 0 -207 -59.5t-107 -171.5h-104q26 147 145.5 238.5t288.5 91.5q162 0 254.5 -103.5t61.5 -271.5l-117 -672h-105l21 115q-115 -138 -344 -138 q-151 0 -248.5 90.5t-71.5 243.5zM160 303q-18 -102 47.5 -165.5t198.5 -63.5q132 0 229 60t117 165q19 108 -60.5 167.5t-206.5 59.5q-135 0 -221 -61t-104 -162z" />
<glyph unicode="&#x431;" horiz-adv-x="1173" d="M90 516q23 129 83.5 237t140 181t171.5 134t180.5 106t163 85t124.5 84t59 91h108q-10 -60 -51 -111t-102 -91t-134.5 -78.5t-154.5 -81t-155.5 -89t-144 -112.5t-114.5 -142q91 99 203 151t219 52q96 0 179.5 -37t140 -101t81.5 -155t7 -193q-37 -208 -198 -339.5 t-384 -131.5q-105 0 -192.5 39t-145.5 108.5t-81.5 172t-2.5 221.5zM190 479q-30 -177 66.5 -289t271.5 -112q174 0 303 106t158 271q29 162 -65.5 269t-266.5 107q-98 0 -193.5 -41.5t-171 -123t-102.5 -187.5z" />
<glyph unicode="&#x432;" horiz-adv-x="1081" d="M68 0l161 928l19 96h395q144 0 222 -83t57 -206q-12 -69 -62 -125q78 -42 113 -119.5t20 -168.5q-26 -143 -135.5 -232.5t-292.5 -89.5h-485h-12zM188 96h394q125 0 206.5 64t100.5 174q19 105 -42 165t-183 60h-396zM285 653h395q34 0 88 -8q41 44 49 96 q17 91 -36.5 140t-153.5 47h-293z" />
<glyph unicode="&#x433;" horiz-adv-x="772" d="M68 0l180 1024h600l-17 -100h-497l-164 -924h-102z" />
<glyph unicode="&#x434;" horiz-adv-x="1167" d="M-94 -295l69 395h119q71 77 114.5 171t70.5 241l90 512h102h504h72l-164 -924h143l-68 -395h-104l51 295h-143h-701l-51 -295h-104zM227 100h553l144 824h-469l-72 -412q-46 -256 -156 -412z" />
<glyph unicode="&#x435;" horiz-adv-x="1175" d="M92 526q40 229 206 375t396 146q145 0 249 -76.5t146 -199t17 -263.5q0 -2 -12 -49h-103h-803q-12 -172 83.5 -277.5t265.5 -105.5q124 0 223.5 54.5t150.5 143.5h117q-68 -135 -202.5 -216t-307.5 -81q-145 0 -252.5 72.5t-154 198.5t-19.5 278zM203 559h807 q17 181 -76 285t-250 104q-178 0 -308 -107t-173 -282z" />
<glyph unicode="&#x436;" horiz-adv-x="1353" d="M-43 0l580 543l-379 481h118l359 -463l80 463h104l-82 -469l514 469h127l-549 -502l388 -522h-115l-373 508l-90 -508h-104l90 506l-541 -506h-127z" />
<glyph unicode="&#x437;" horiz-adv-x="868" d="M12 307h105q-20 -105 47 -168t194 -63q124 0 212 63t108 168q19 105 -45.5 166.5t-188.5 61.5h-65l18 94h64q62 0 125 -17q86 62 100 142q17 91 -36 142.5t-148 51.5q-99 0 -169.5 -51.5t-88.5 -146.5h-105q25 133 125.5 215t253.5 82q143 0 219 -88t54 -211 q-18 -104 -117 -177q66 -44 93.5 -116.5t12.5 -157.5q-24 -140 -139.5 -230t-296.5 -90q-176 0 -267 96t-65 234z" />
<glyph unicode="&#x438;" d="M68 0l180 1024h102l-145 -831l735 831h92l-180 -1024h-104l147 831l-737 -831h-90z" />
<glyph unicode="&#x439;" d="M68 0l180 1024h102l-145 -831l735 831h92l-180 -1024h-104l147 831l-737 -831h-90zM412 1202l16 90h518l-14 -90h-520z" />
<glyph unicode="&#x43a;" horiz-adv-x="989" d="M68 0l180 1024h102l-80 -459l598 459h146l-641 -494l479 -530h-127l-465 514l-90 -514h-102z" />
<glyph unicode="&#x43b;" horiz-adv-x="1091" d="M-63 0l18 96q119 -11 192 66t107 268l104 594h103h565l-180 -1024h-105l162 924h-459l-86 -494q-19 -109 -50.5 -189t-69 -128t-87.5 -75t-100.5 -34.5t-113.5 -3.5z" />
<glyph unicode="&#x43c;" horiz-adv-x="1304" d="M68 0l180 1024h102h10l252 -692l494 692h131l-180 -1024h-105l152 856l-463 -647h-82l-237 649l-152 -858h-102z" />
<glyph unicode="&#x43d;" d="M68 0l180 1024h102l-80 -463h578l80 463h104l-180 -1024h-104l81 463h-577l-82 -463h-102z" />
<glyph unicode="&#x43e;" horiz-adv-x="1253" d="M90 522q21 121 84 222t150 166.5t190.5 101t208.5 35.5q103 0 192.5 -39.5t152 -108.5t89.5 -172.5t6 -222.5q-28 -164 -125.5 -286t-226.5 -181.5t-270 -59.5q-104 0 -195 39t-155.5 108t-93 173t-7.5 225zM195 512q-17 -99 4 -182.5t71.5 -138t123 -85t157.5 -30.5 q115 0 221.5 51.5t185.5 153.5t103 235q17 98 -4.5 180.5t-71.5 136.5t-122.5 84.5t-157.5 30.5q-114 -1 -220.5 -52t-186 -152t-103.5 -232z" />
<glyph unicode="&#x43f;" d="M68 0l180 1024h102h682l-180 -1024h-104l163 924h-577l-164 -924h-102z" />
<glyph unicode="&#x440;" horiz-adv-x="1320" d="M-4 -410l252 1434h102l-37 -215q83 112 205.5 175t269.5 63q105 0 196 -43.5t152 -116t87.5 -174.5t7.5 -213q-40 -227 -212.5 -375t-404.5 -148q-142 0 -247 75t-152 202l-117 -664h-102zM262 518q-21 -120 20 -222t132 -161t211 -59q185 0 326.5 125.5t174.5 310.5 q32 183 -73.5 309.5t-288.5 126.5t-326.5 -123t-175.5 -307z" />
<glyph unicode="&#x441;" horiz-adv-x="1179" d="M92 528q40 226 216.5 372.5t406.5 146.5q173 0 292 -93.5t138 -242.5h-107q-24 108 -111.5 172.5t-221.5 64.5q-187 0 -331.5 -123t-176.5 -307q-21 -122 16 -223t126 -160t212 -59q132 0 244.5 65t173.5 172h108q-70 -156 -216.5 -246t-328.5 -90q-148 0 -258.5 74.5 t-159 201t-22.5 275.5z" />
<glyph unicode="&#x442;" horiz-adv-x="819" d="M100 924l17 100h434h332l-19 -100h-329l-164 -924h-103l162 924h-330z" />
<glyph unicode="&#x443;" horiz-adv-x="989" d="M-2 -410l16 97q98 -9 186.5 54.5t155.5 184.5l35 64l-244 1034h105l213 -903l477 903h115l-598 -1118q-85 -159 -206.5 -242.5t-254.5 -73.5z" />
<glyph unicode="&#x444;" horiz-adv-x="1376" d="M90 522q39 218 215 364t426 161l68 387h102l-67 -387q157 -11 269 -86.5t159.5 -195.5t23.5 -263q-39 -219 -214 -364.5t-427 -160.5l-67 -387h-103l68 387q-157 11 -269 86.5t-160 196t-24 262.5zM195 512q-31 -177 68 -298t296 -136l154 868q-203 -15 -345 -136 t-173 -298zM664 78q203 15 345 136t173 298t-68.5 298t-296.5 136z" />
<glyph unicode="&#x445;" horiz-adv-x="921" d="M-43 0l451 535l-246 489h108l205 -410l344 410h121l-420 -498l264 -526h-108l-223 444l-375 -444h-121z" />
<glyph unicode="&#x446;" horiz-adv-x="1153" d="M68 0l180 1024h102l-162 -924h557l162 924h105l-164 -924h164l-68 -395h-104l51 295h-823z" />
<glyph unicode="&#x447;" horiz-adv-x="1038" d="M145 676l62 348h102l-61 -348q-20 -122 38 -183t187 -61q144 0 301 66l92 526h105l-180 -1024h-105l70 395q-140 -61 -293 -61q-172 0 -259.5 92t-58.5 250z" />
<glyph unicode="&#x448;" horiz-adv-x="1550" d="M68 0l180 1024h102l-162 -924h463l162 924h105l-164 -924h463l161 924h105l-180 -1024h-105h-565h-500h-65z" />
<glyph unicode="&#x449;" horiz-adv-x="1603" d="M68 0l180 1024h102l-162 -924h463l162 924h105l-164 -924h463l161 924h105l-162 -924h141l-6 -45l-8 -39l-2 -16l-51 -295h-105l51 295h-143h-565h-500h-65z" />
<glyph unicode="&#x44a;" horiz-adv-x="1107" d="M74 924l16 100h354h43l-69 -397h303q87 0 157 -41t105 -116.5t18 -166.5q-24 -138 -135.5 -220.5t-257.5 -82.5h-348h-57l164 924h-293zM326 100h301q99 0 177 59t95 154q17 96 -40.5 154.5t-158.5 58.5h-301z" />
<glyph unicode="&#x44b;" horiz-adv-x="1318" d="M68 0l180 1024h102l-69 -397h303q88 0 158.5 -41t105.5 -116.5t18 -166.5q-24 -138 -135.5 -220.5t-257.5 -82.5h-350h-55zM188 100h301q99 0 177.5 59t95.5 154q17 96 -40.5 154.5t-156.5 58.5h-301zM969 0l180 1024h102l-180 -1024h-102z" />
<glyph unicode="&#x44c;" horiz-adv-x="970" d="M68 0l180 1024h102l-69 -397h303q88 0 158.5 -41t105.5 -116.5t18 -166.5q-24 -138 -135.5 -220.5t-257.5 -82.5h-350h-55zM188 100h301q99 0 177.5 59t95.5 154q17 96 -40.5 154.5t-156.5 58.5h-301z" />
<glyph unicode="&#x44d;" horiz-adv-x="1175" d="M33 313h110q22 -108 111.5 -172.5t226.5 -64.5q169 0 306.5 110t183.5 277h-531l19 98h528q14 167 -84.5 277t-267.5 110q-131 0 -246.5 -65.5t-175.5 -171.5h-111q73 152 222 244t329 92q146 0 254.5 -72.5t156 -198t21.5 -274.5q-40 -228 -215 -376.5t-405 -148.5 q-172 0 -292.5 93.5t-139.5 242.5z" />
<glyph unicode="&#x44e;" horiz-adv-x="1644" d="M68 0l180 1024h102l-80 -463h228q36 150 133 262.5t222.5 168t260.5 55.5q103 0 192.5 -39.5t152 -108.5t89.5 -172.5t6 -222.5q-28 -164 -124.5 -286t-226 -181.5t-271.5 -59.5q-98 0 -183.5 34.5t-148 96t-95 154t-24.5 201.5h-229l-82 -463h-102zM586 512 q-16 -99 5 -182.5t71.5 -138t122.5 -85t157 -30.5q115 0 222 51.5t186 153.5t102 235q17 98 -4.5 180.5t-71.5 136.5t-122.5 84.5t-157.5 30.5q-114 -1 -220.5 -52t-186 -152t-103.5 -232z" />
<glyph unicode="&#x44f;" horiz-adv-x="1024" d="M-43 0l434 406q-117 20 -185.5 106.5t-47.5 208.5q24 137 136.5 220t256.5 83h405l-180 -1024h-102l69 399h-225l-422 -399h-139zM262 711q-17 -96 40.5 -154.5t156.5 -58.5h301l76 426h-301q-99 0 -177.5 -59t-95.5 -154z" />
<glyph unicode="&#x451;" horiz-adv-x="1175" d="M92 526q40 229 206 375t396 146q145 0 249 -76.5t146 -199t17 -263.5q0 -2 -12 -49h-103h-803q-12 -172 83.5 -277.5t265.5 -105.5q124 0 223.5 54.5t150.5 143.5h117q-68 -135 -202.5 -216t-307.5 -81q-145 0 -252.5 72.5t-154 198.5t-19.5 278zM203 559h807 q17 181 -76 285t-250 104q-178 0 -308 -107t-173 -282zM467 1188l27 149h122l-26 -149h-123zM862 1188l27 149h123l-27 -149h-123z" />
<glyph unicode="&#x452;" horiz-adv-x="1091" d="M94 0l209 1192h-147l14 86h149l27 156h105l-29 -156h321l-14 -86h-321l-58 -328q138 183 367 183q141 0 225.5 -102.5t56.5 -268.5l-141 -793q-59 -342 -395 -315l16 98q119 -12 187 42t90 175l139 793q23 129 -35 200.5t-174 71.5q-61 0 -120.5 -21t-112.5 -62.5 t-93 -111t-57 -157.5l-104 -596h-105z" />
<glyph unicode="&#x453;" horiz-adv-x="772" d="M68 0l180 1024h600l-17 -100h-497l-164 -924h-102zM440 1167l205 260h127l-229 -260h-103z" />
<glyph unicode="&#x454;" horiz-adv-x="1175" d="M92 528q40 228 211 373.5t399 145.5q172 0 293.5 -93.5t147.5 -242.5h-109q-30 108 -121.5 172.5t-224.5 64.5q-171 0 -304.5 -109t-178.5 -278h530l-18 -98h-529q-8 -166 92.5 -276.5t266.5 -110.5q133 0 246 64.5t172 172.5h108q-67 -152 -213 -244t-328 -92 q-147 0 -257.5 74.5t-159.5 201.5t-23 275z" />
<glyph unicode="&#x455;" horiz-adv-x="950" d="M57 283h105q-19 -102 47 -154.5t186 -52.5t204 47t101 137q9 51 -11.5 89t-61 59.5t-93.5 41t-109.5 34t-108.5 38.5t-91 53.5t-57 81t-6 119.5q23 124 131.5 197.5t265.5 73.5t244.5 -85.5t62.5 -220.5h-104q19 101 -43 154t-168 53q-108 0 -188.5 -46.5t-96.5 -135.5 q-8 -45 7.5 -79.5t48.5 -56t77 -38.5t94 -31.5t99 -30.5t92.5 -39t74.5 -53.5t44 -78.5t2 -109q-22 -123 -136 -198t-282 -75q-170 0 -262.5 85t-67.5 221z" />
<glyph unicode="&#x456;" horiz-adv-x="417" d="M68 0l180 1024h102l-180 -1024h-102zM285 1229l34 205h103l-35 -205h-102z" />
<glyph unicode="&#x457;" horiz-adv-x="417" d="M68 0l180 1024h102l-180 -1024h-102zM68 1188l26 149h123l-27 -149h-122zM463 1188l26 149h123l-26 -149h-123z" />
<glyph unicode="&#x458;" horiz-adv-x="456" d="M-207 -432l17 98q120 -12 187 41t89 176l201 1141h102l-201 -1141q-59 -350 -395 -315zM324 1229l34 205h103l-35 -205h-102z" />
<glyph unicode="&#x459;" horiz-adv-x="1579" d="M-63 0l18 96q120 -12 192.5 64.5t106.5 269.5l104 594h103h473h72l-78 -438h274q62 0 116.5 -21.5t92.5 -59.5t54.5 -96t4.5 -126q-25 -136 -127.5 -209.5t-242.5 -73.5h-324h-55l162 924h-439l-86 -494q-24 -134 -65 -223.5t-97.5 -135t-118 -61.5t-140.5 -10zM842 100 h274q94 0 163.5 50t86.5 143q17 94 -34.5 143t-145.5 49h-277z" />
<glyph unicode="&#x45a;" horiz-adv-x="1579" d="M68 0l180 1024h102l-76 -438h549l78 438h105l-78 -438h274q62 0 116.5 -21.5t92.5 -59.5t54.5 -96t4.5 -126q-25 -136 -127.5 -209.5t-242.5 -73.5h-324h-55l86 485h-551l-86 -485h-102zM842 100h274q94 0 163.5 50t86.5 143q17 94 -34.5 143t-145.5 49h-277z" />
<glyph unicode="&#x45b;" d="M94 0l209 1192h-147l14 86h149l27 156h105l-29 -156h321l-14 -86h-321l-58 -328q138 183 367 183q141 0 225.5 -102.5t56.5 -268.5l-120 -676h-103l119 676q23 129 -35 200.5t-174 71.5q-61 0 -120.5 -21t-112.5 -62.5t-93 -111t-57 -157.5l-104 -596h-105z" />
<glyph unicode="&#x45c;" horiz-adv-x="989" d="M68 0l180 1024h102l-80 -459l598 459h146l-641 -494l479 -530h-127l-465 514l-90 -514h-102zM522 1167l205 260h127l-229 -260h-103z" />
<glyph unicode="&#x45e;" horiz-adv-x="989" d="M-2 -410l16 97q98 -9 186.5 54.5t155.5 184.5l35 64l-244 1034h105l213 -903l477 903h115l-598 -1118q-85 -159 -206.5 -242.5t-254.5 -73.5zM369 1202l16 90h518l-14 -90h-520z" />
<glyph unicode="&#x45f;" d="M68 0l180 1024h102l-162 -924h578l162 924h104l-180 -1024h-104h-238l-49 -295h-105l52 295h-277h-63z" />
<glyph unicode="&#x490;" horiz-adv-x="989" d="M88 0l252 1434h655l45 245h109l-53 -293l-9 -55h-657l-233 -1331h-109z" />
<glyph unicode="&#x491;" horiz-adv-x="772" d="M68 0l180 1024h497l37 213h103l-54 -313h-497l-164 -924h-102z" />
<glyph unicode="&#x2000;" horiz-adv-x="917" />
<glyph unicode="&#x2001;" horiz-adv-x="1835" />
<glyph unicode="&#x2002;" horiz-adv-x="917" />
<glyph unicode="&#x2003;" horiz-adv-x="1835" />
<glyph unicode="&#x2004;" horiz-adv-x="611" />
<glyph unicode="&#x2005;" horiz-adv-x="458" />
<glyph unicode="&#x2006;" horiz-adv-x="305" />
<glyph unicode="&#x2007;" horiz-adv-x="305" />
<glyph unicode="&#x2008;" horiz-adv-x="229" />
<glyph unicode="&#x2009;" horiz-adv-x="367" />
<glyph unicode="&#x200a;" horiz-adv-x="101" />
<glyph unicode="&#x2010;" horiz-adv-x="1091" d="M190 584l17 98h737l-16 -98h-738z" />
<glyph unicode="&#x2011;" horiz-adv-x="1091" d="M190 584l17 98h737l-16 -98h-738z" />
<glyph unicode="&#x2012;" horiz-adv-x="1091" d="M190 584l17 98h737l-16 -98h-738z" />
<glyph unicode="&#x2013;" horiz-adv-x="1361" d="M190 584l17 98h1007l-16 -98h-1008z" />
<glyph unicode="&#x2014;" horiz-adv-x="1566" d="M190 584l17 98h1212l-16 -98h-1213z" />
<glyph unicode="&#x2018;" horiz-adv-x="450" d="M240 1022l34 190q17 103 63.5 160t127.5 72l-12 -68q-40 -11 -65.5 -48t-39.5 -116h62l-33 -190h-137z" />
<glyph unicode="&#x2019;" horiz-adv-x="452" d="M240 1012l10 67q40 11 65.5 48.5t38.5 115.5h-61l35 191h137l-35 -191q-19 -103 -64.5 -159.5t-125.5 -71.5z" />
<glyph unicode="&#x201a;" horiz-adv-x="450" d="M14 -258l13 68q40 11 65 47.5t39 115.5h-61l32 191h138l-35 -191q-17 -102 -63.5 -159t-127.5 -72z" />
<glyph unicode="&#x201c;" horiz-adv-x="710" d="M240 1022l34 190q17 103 63.5 160t127.5 72l-12 -68q-40 -11 -65.5 -48t-39.5 -116h62l-33 -190h-137zM500 1022l32 190q19 103 65.5 160t127.5 72l-12 -68q-41 -11 -66.5 -48.5t-38.5 -115.5h62l-35 -190h-135z" />
<glyph unicode="&#x201d;" horiz-adv-x="712" d="M240 1012l10 67q40 11 65.5 48.5t38.5 115.5h-61l35 191h137l-35 -191q-19 -103 -64.5 -159.5t-125.5 -71.5zM500 1012l10 67q40 11 65.5 48.5t38.5 115.5h-61l35 191h137l-35 -191q-19 -103 -64.5 -159.5t-125.5 -71.5z" />
<glyph unicode="&#x201e;" horiz-adv-x="710" d="M14 -258l13 68q40 11 65 47.5t39 115.5h-61l32 191h138l-35 -191q-17 -102 -63.5 -159t-127.5 -72zM274 -258l11 68q41 11 66 48t38 115h-61l34 191h138l-35 -191q-19 -103 -65 -159.5t-126 -71.5z" />
<glyph unicode="&#x2026;" horiz-adv-x="1216" d="M59 0l31 164h135l-28 -164h-138zM449 0l30 164h135l-28 -164h-137zM838 0l30 164h136l-29 -164h-137z" />
<glyph unicode="&#x202f;" horiz-adv-x="367" />
<glyph unicode="&#x2039;" horiz-adv-x="681" d="M184 633l283 354h135l-289 -362l154 -346h-125z" />
<glyph unicode="&#x203a;" horiz-adv-x="684" d="M123 279l287 362l-154 346h127l158 -354l-283 -354h-135z" />
<glyph unicode="&#x205f;" horiz-adv-x="458" />
<glyph unicode="&#x20ac;" horiz-adv-x="1271" d="M27 549l16 92h158l12 86q3 14 8 39.5t8 38.5h-157l16 90h166q79 263 242 412t383 149q193 0 301.5 -125.5t103.5 -341.5h-108q0 173 -82.5 268t-231.5 95q-167 0 -295.5 -119t-199.5 -338h546l-14 -90h-557q-12 -45 -18 -88q-3 -14 -13 -76h557l-14 -92h-551 q-9 -223 78 -345t256 -122q153 0 269.5 98t174.5 277h111q-70 -226 -218.5 -353t-355.5 -127q-212 0 -322 154.5t-101 417.5h-168z" />
<glyph unicode="&#x2122;" horiz-adv-x="978" d="M254 1370l10 64h189h120l-10 -64h-121l-61 -346h-68l60 346h-119zM557 1024l72 410h67h13l77 -248l166 248h86l-71 -410h-68l51 297l-139 -207h-66l-67 209l-53 -299h-68z" />
<glyph unicode="&#x25fc;" horiz-adv-x="1024" d="M0 0v1024h1024v-1024h-1024z" />
</font>
</defs>
</svg>
